<svg
  xmlns="http://www.w3.org/2000/svg"
  width="480"
  height="420"
  viewBox="0 0 480 420"
  fill="none"
>
  <title>Approach corner splat</title>
  <path
    d="M480 420H281C299 391 324 367 355 348C313 349 267 361 221 386L190 326C246 300 299 291 351 298C313 268 267 245 216 231L237 166C294 184 342 210 379 245C359 195 350 142 352 87L421 92C418 150 425 203 445 250C452 189 462 133 480 82V420Z"
    fill="#0B5139"
  />
  <path
    d="M480 420H384C390 384 408 351 438 322C407 326 379 337 351 355L326 318C366 292 405 282 447 286C427 262 407 245 381 229L403 195C433 214 458 238 480 269V420Z"
    fill="#F5ECD9"
  />
  <circle cx="382" cy="300" r="20" fill="#EF5D3C" />
  <path
    d="M274 119C299 119 320 99 320 74C320 99 341 119 366 119C341 119 320 140 320 165C320 140 299 119 274 119Z"
    fill="#0B5139"
  />
</svg>
