<svg xmlns="http://www.w3.org/2000/svg" viewBox="0 0 252.283 90" fill="#c7a4ff" aria-hidden="true">
  <path d="M 67.898438 74.082031 C 67.847656 74.121094 67.816406 74.140625 67.792969 74.140625 C 67.535156 74.023438 67.070312 74.210938 66.398438 74.707031 C 65.523438 75.382812 64.5625 75.925781 63.511719 76.34375 C 62.933594 76.582031 62.398438 76.738281 61.902344 76.820312 C 60.96875 76.996094 59.945312 76.953125 58.824219 76.683594 C 57.703125 76.417969 56.902344 75.925781 56.429688 75.210938 C 56.128906 74.777344 55.960938 74.03125 55.921875 72.980469 C 55.902344 71.910156 56.039062 71.15625 56.339844 70.722656 C 56.617188 70.226562 56.753906 69.847656 56.753906 69.589844 C 56.753906 68.898438 57.425781 67.859375 58.761719 66.484375 C 60.101562 65.105469 61.101562 64.417969 61.753906 64.417969 C 62.109375 64.417969 62.414062 64.570312 62.660156 64.878906 C 62.910156 65.183594 62.972656 65.488281 62.855469 65.785156 C 62.738281 66.140625 62.949219 66.472656 63.496094 66.78125 C 64.039062 67.085938 64.621094 67.210938 65.234375 67.152344 C 65.691406 67.09375 65.984375 66.988281 66.113281 66.839844 C 66.242188 66.691406 66.375 66.308594 66.515625 65.695312 C 66.734375 64.464844 66.390625 63.476562 65.488281 62.722656 C 64.585938 61.96875 63.28125 61.589844 61.574219 61.589844 C 60.644531 61.589844 60.007812 61.65625 59.671875 61.785156 C 59.332031 61.914062 58.808594 62.273438 58.09375 62.871094 C 55.058594 65.546875 53.453125 68.757812 53.273438 72.507812 C 53.253906 73.734375 53.371094 74.695312 53.628906 75.390625 C 53.730469 75.648438 53.882812 75.976562 54.09375 76.371094 C 54.300781 76.769531 54.542969 77.175781 54.820312 77.589844 C 55.097656 78.007812 55.347656 78.324219 55.566406 78.542969 C 56.121094 79.097656 56.953125 79.410156 58.066406 79.480469 C 59.175781 79.550781 60.316406 79.429688 61.484375 79.125 C 62.65625 78.816406 63.621094 78.539062 64.371094 78.289062 C 65.125 78.042969 65.664062 77.847656 65.980469 77.710938 C 66.476562 77.492188 66.960938 77.226562 67.4375 76.90625 C 67.496094 76.867188 67.617188 76.789062 67.792969 76.667969 C 67.972656 76.550781 68.117188 76.457031 68.226562 76.386719 C 68.335938 76.316406 68.472656 76.21875 68.644531 76.089844 C 68.8125 75.960938 68.945312 75.84375 69.042969 75.734375 C 69.144531 75.625 69.246094 75.5 69.359375 75.359375 C 69.464844 75.222656 69.546875 75.078125 69.59375 74.929688 C 69.644531 74.78125 69.671875 74.636719 69.671875 74.5 C 69.648438 73.921875 69.480469 73.605469 69.164062 73.546875 C 68.847656 73.488281 68.46875 73.636719 68.035156 73.992188 C 67.992188 74.011719 67.949219 74.042969 67.898438 74.082031 M 84.265625 72.355469 C 84.105469 72.496094 83.847656 72.683594 83.492188 72.921875 L 83.402344 72.980469 C 82.886719 72.546875 82.523438 72.171875 82.316406 71.867188 C 82.109375 71.558594 81.972656 71.117188 81.914062 70.542969 C 81.796875 69.570312 81.734375 68.203125 81.734375 66.4375 C 81.734375 66.023438 81.707031 65.703125 81.644531 65.488281 C 81.585938 65.269531 81.476562 65.039062 81.320312 64.804688 C 81.160156 64.566406 80.902344 64.246094 80.542969 63.851562 C 79.871094 63.136719 79.277344 62.730469 78.761719 62.632812 C 78.222656 62.511719 77.609375 62.679688 76.914062 63.136719 C 76.476562 63.433594 75.972656 63.644531 75.398438 63.761719 C 74.207031 64.039062 73.207031 64.503906 72.390625 65.160156 C 71.578125 65.8125 70.714844 66.875 69.804688 68.34375 C 69.089844 69.492188 68.652344 70.5 68.492188 71.359375 C 68.335938 72.222656 68.40625 73.367188 68.703125 74.796875 C 68.878906 75.667969 69.058594 76.277344 69.238281 76.625 C 69.417969 76.972656 69.753906 77.375 70.25 77.828125 C 70.707031 78.265625 71.054688 78.53125 71.289062 78.632812 C 71.449219 78.710938 71.636719 78.75 71.855469 78.75 C 71.957031 78.75 72.054688 78.742188 72.152344 78.722656 C 72.53125 78.621094 73.105469 78.542969 73.878906 78.484375 C 74.554688 78.445312 75.269531 78.195312 76.023438 77.742188 C 76.636719 77.363281 77.125 77.085938 77.480469 76.90625 C 77.757812 76.828125 78.085938 76.511719 78.460938 75.957031 C 78.582031 75.796875 78.730469 75.507812 78.910156 75.09375 C 79.285156 74.28125 79.625 73.792969 79.921875 73.636719 C 80.160156 73.515625 80.355469 73.496094 80.515625 73.578125 C 80.675781 73.65625 80.84375 73.84375 81.023438 74.140625 L 81.109375 74.289062 C 81.269531 74.585938 81.417969 74.796875 81.558594 74.914062 C 82.113281 75.429688 82.6875 75.667969 83.28125 75.628906 C 83.480469 75.609375 83.71875 75.519531 83.996094 75.359375 C 84.074219 75.300781 84.144531 75.261719 84.207031 75.242188 C 84.542969 75.0625 84.839844 74.886719 85.097656 74.707031 C 85.8125 74.171875 86.160156 73.597656 86.140625 72.980469 C 86.140625 72.445312 85.992188 72.097656 85.691406 71.941406 C 85.335938 71.761719 84.859375 71.902344 84.265625 72.355469 M 78.730469 67.777344 C 78.652344 67.65625 78.570312 67.371094 78.492188 66.914062 C 78.371094 66.28125 78.363281 65.875 78.460938 65.695312 C 78.503906 65.636719 78.542969 65.585938 78.582031 65.546875 C 78.738281 65.625 78.820312 66.050781 78.820312 66.824219 C 78.820312 67.300781 78.789062 67.617188 78.730469 67.777344 M 77.332031 72.921875 C 76.972656 73.339844 76.734375 73.734375 76.617188 74.113281 C 76.519531 74.46875 76.089844 74.945312 75.335938 75.539062 C 75.140625 75.699219 74.972656 75.828125 74.832031 75.925781 C 74.695312 76.023438 74.554688 76.113281 74.414062 76.195312 C 74.296875 76.253906 74.167969 76.304688 74.027344 76.34375 C 73.890625 76.382812 73.742188 76.402344 73.582031 76.402344 C 73.421875 76.421875 73.226562 76.429688 72.988281 76.429688 C 72.492188 76.429688 72.132812 76.382812 71.914062 76.28125 C 71.71875 76.203125 71.570312 76.054688 71.46875 75.835938 C 71.371094 75.578125 71.289062 75.183594 71.230469 74.648438 C 71.210938 73.933594 71.121094 73.429688 70.964844 73.128906 C 70.824219 72.8125 70.863281 72.308594 71.082031 71.613281 C 71.300781 70.878906 71.644531 70.097656 72.109375 69.265625 C 72.574219 68.429688 73.078125 67.746094 73.613281 67.210938 C 74.226562 66.578125 74.632812 66.210938 74.832031 66.109375 C 74.890625 66.070312 74.960938 66.050781 75.039062 66.050781 C 75.140625 66.050781 75.257812 66.101562 75.398438 66.199219 C 75.574219 66.320312 75.753906 66.566406 75.933594 66.945312 C 76.113281 67.320312 76.199219 67.648438 76.199219 67.925781 C 76.199219 68.34375 76.527344 68.867188 77.183594 69.5 C 77.597656 69.917969 77.847656 70.226562 77.925781 70.421875 C 78.023438 70.621094 78.035156 70.949219 77.957031 71.40625 C 77.855469 72.078125 77.648438 72.585938 77.332031 72.921875 M 109.957031 73.695312 C 109.542969 73.953125 109.121094 74.207031 108.695312 74.453125 C 108.269531 74.703125 107.871094 74.933594 107.503906 75.152344 L 106.953125 75.480469 C 105.1875 76.234375 104.226562 76.628906 104.066406 76.667969 C 103.492188 76.789062 103.027344 76.820312 102.667969 76.757812 C 102.054688 76.640625 101.601562 76.324219 101.316406 75.808594 C 101.027344 75.292969 100.992188 74.734375 101.210938 74.140625 C 101.429688 73.449219 101.539062 72.921875 101.539062 72.566406 C 101.539062 72.128906 101.757812 71.496094 102.191406 70.660156 C 102.570312 69.828125 102.828125 68.9375 102.964844 67.984375 C 103.105469 67.035156 103.054688 66.25 102.816406 65.636719 C 102.640625 65.257812 102.46875 65.027344 102.3125 64.9375 C 102.152344 64.847656 101.757812 64.832031 101.121094 64.890625 C 100.269531 65.011719 99.246094 65.445312 98.058594 66.199219 C 97.542969 66.539062 97.152344 66.769531 96.894531 66.898438 C 96.636719 67.027344 96.421875 67.097656 96.242188 67.109375 C 96.0625 67.117188 95.945312 67.0625 95.882812 66.945312 C 95.824219 66.824219 95.773438 66.636719 95.734375 66.378906 C 95.714844 65.824219 95.683594 65.527344 95.648438 65.488281 C 95.648438 65.289062 95.367188 65.128906 94.8125 65.011719 C 94.675781 64.992188 94.476562 64.941406 94.21875 64.863281 C 93.980469 64.78125 93.820312 64.742188 93.742188 64.742188 C 93.664062 64.722656 93.53125 64.703125 93.355469 64.683594 C 93.175781 64.664062 93.039062 64.683594 92.9375 64.742188 C 92.878906 64.761719 92.75 64.8125 92.550781 64.890625 C 92.390625 64.972656 92.195312 65.089844 91.957031 65.25 C 91.339844 65.683594 90.804688 66.25 90.347656 66.945312 C 90.03125 67.460938 89.753906 67.726562 89.515625 67.746094 C 89.199219 67.804688 89.128906 67.53125 89.308594 66.914062 C 89.386719 66.539062 89.390625 66.269531 89.324219 66.109375 C 89.253906 65.953125 89.113281 65.886719 88.90625 65.917969 C 88.699219 65.949219 88.496094 66.015625 88.296875 66.125 C 88.097656 66.234375 87.910156 66.359375 87.730469 66.5 C 86.957031 67.09375 86.242188 68.09375 85.589844 69.5 C 85.410156 69.839844 85.226562 70.410156 85.039062 71.210938 C 84.847656 72.015625 84.65625 72.625 84.457031 73.039062 C 83.761719 74.371094 83.367188 75.328125 83.269531 75.910156 C 83.167969 76.496094 83.335938 76.988281 83.773438 77.382812 C 84.230469 77.78125 84.6875 77.839844 85.140625 77.5625 C 85.597656 77.285156 86.105469 76.628906 86.660156 75.597656 C 87.015625 74.925781 87.546875 74.097656 88.253906 73.117188 C 88.957031 72.132812 89.628906 71.292969 90.273438 70.585938 C 90.921875 69.882812 91.351562 69.53125 91.570312 69.53125 C 91.667969 69.589844 91.578125 70.117188 91.300781 71.109375 C 90.886719 71.980469 90.675781 72.554688 90.675781 72.832031 C 90.675781 73.148438 90.46875 73.726562 90.050781 74.558594 C 89.554688 75.6875 89.296875 76.425781 89.277344 76.773438 C 89.257812 77.121094 89.457031 77.484375 89.875 77.859375 C 90.371094 78.335938 90.816406 78.453125 91.210938 78.214844 C 91.609375 77.976562 92.105469 77.285156 92.699219 76.132812 C 93.554688 74.46875 94.753906 72.683594 96.300781 70.78125 C 97.847656 68.878906 98.890625 67.925781 99.425781 67.925781 C 99.625 67.925781 99.664062 68.105469 99.542969 68.460938 C 99.128906 69.890625 98.832031 71.109375 98.652344 72.117188 C 98.453125 73.109375 98.359375 74 98.371094 74.78125 C 98.378906 75.5625 98.511719 76.214844 98.769531 76.730469 C 99.027344 77.246094 99.390625 77.664062 99.855469 77.992188 C 100.324219 78.320312 100.941406 78.582031 101.714844 78.78125 C 102.53125 79.019531 103.214844 79.128906 103.769531 79.109375 C 104.304688 79.089844 105.058594 78.9375 106.03125 78.664062 C 106.863281 78.425781 107.667969 78 108.441406 77.382812 C 109.015625 76.90625 109.613281 76.460938 110.226562 76.046875 C 110.285156 76.003906 110.429688 75.910156 110.660156 75.761719 C 110.886719 75.613281 111.054688 75.5 111.164062 75.421875 C 111.273438 75.339844 111.425781 75.222656 111.625 75.0625 C 111.824219 74.90625 111.972656 74.761719 112.070312 74.632812 C 112.171875 74.503906 112.261719 74.351562 112.339844 74.171875 C 112.417969 73.992188 112.457031 73.8125 112.457031 73.636719 C 112.4375 73.082031 112.265625 72.769531 111.9375 72.699219 C 111.609375 72.628906 111.226562 72.773438 110.792969 73.128906 C 110.652344 73.25 110.375 73.4375 109.957031 73.695312 M 140.519531 75.867188 C 140.460938 75.90625 140.371094 75.945312 140.25 75.984375 C 140.171875 75.984375 140.09375 75.996094 140.011719 76.015625 C 137.910156 76.667969 136.671875 76.621094 136.292969 75.867188 C 136.113281 75.589844 136.109375 75.003906 136.277344 74.113281 C 136.445312 73.21875 136.699219 72.398438 137.039062 71.644531 C 137.433594 70.851562 137.742188 70.003906 137.960938 69.101562 C 138.179688 68.199219 138.199219 67.265625 138.019531 66.304688 C 137.839844 65.34375 137.363281 64.664062 136.589844 64.265625 C 135.957031 63.949219 135.226562 63.839844 134.40625 63.941406 C 133.582031 64.039062 132.792969 64.242188 132.039062 64.550781 C 131.285156 64.859375 130.628906 65.230469 130.074219 65.664062 C 129.359375 66.242188 128.378906 67.300781 127.128906 68.847656 C 126.75 69.304688 126.484375 69.652344 126.324219 69.890625 C 126.167969 70.105469 125.996094 70.34375 125.820312 70.601562 C 125.660156 70.859375 125.433594 71.257812 125.132812 71.792969 C 124.796875 72.40625 124.613281 73.429688 124.585938 74.855469 C 124.554688 76.28125 124.699219 77.246094 125.015625 77.742188 C 125.53125 78.511719 126.628906 78.84375 128.304688 78.734375 C 129.980469 78.628906 131.421875 78.136719 132.632812 77.265625 C 133.011719 76.96875 133.269531 76.808594 133.40625 76.789062 C 133.546875 76.769531 133.714844 76.839844 133.914062 76.996094 C 134.210938 77.273438 134.816406 77.632812 135.726562 78.066406 C 136.34375 78.34375 136.824219 78.519531 137.171875 78.585938 C 137.519531 78.65625 138.007812 78.652344 138.644531 78.574219 C 139.65625 78.453125 140.429688 78.136719 140.964844 77.621094 L 141.113281 77.441406 C 141.550781 77.226562 141.789062 77.105469 141.828125 77.085938 C 142.246094 76.90625 142.640625 76.6875 143.019531 76.429688 C 143.078125 76.390625 143.167969 76.332031 143.285156 76.253906 C 143.40625 76.171875 143.503906 76.109375 143.582031 76.058594 C 143.664062 76.011719 143.761719 75.941406 143.882812 75.851562 C 144 75.761719 144.101562 75.679688 144.179688 75.597656 C 144.257812 75.519531 144.347656 75.429688 144.445312 75.332031 C 144.546875 75.230469 144.621094 75.136719 144.671875 75.046875 C 144.71875 74.960938 144.765625 74.859375 144.804688 74.75 C 144.84375 74.640625 144.863281 74.539062 144.863281 74.4375 C 144.863281 73.964844 144.730469 73.699219 144.460938 73.652344 C 144.195312 73.601562 143.871094 73.726562 143.496094 74.023438 C 142.78125 74.597656 141.789062 75.210938 140.519531 75.867188 M 134.09375 69.203125 C 134.171875 69.441406 134.125 69.664062 133.957031 69.875 C 133.789062 70.082031 133.703125 70.285156 133.703125 70.484375 C 133.703125 70.800781 133.445312 71.40625 132.929688 72.296875 C 132.632812 72.871094 132.246094 73.625 131.769531 74.558594 C 131.492188 75.113281 131.066406 75.53125 130.492188 75.808594 C 129.894531 76.023438 129.261719 76.132812 128.585938 76.132812 C 127.910156 76.132812 127.476562 76.015625 127.277344 75.777344 C 127.058594 75.5 127.011719 74.90625 127.128906 73.992188 C 127.246094 73.082031 127.476562 72.386719 127.8125 71.910156 C 128.089844 71.453125 128.425781 70.9375 128.824219 70.363281 C 129.121094 69.867188 129.691406 69.273438 130.535156 68.578125 C 131.378906 67.886719 132.007812 67.488281 132.425781 67.390625 C 132.839844 67.273438 133.269531 67.25 133.703125 67.332031 C 134.140625 67.410156 134.476562 67.578125 134.714844 67.835938 C 134.835938 67.957031 134.886719 68.054688 134.867188 68.132812 C 134.84375 68.214844 134.726562 68.3125 134.507812 68.429688 C 134.128906 68.628906 133.992188 68.886719 134.09375 69.203125 M 188.636719 66.765625 C 188.226562 66.765625 187.054688 66.925781 185.109375 67.242188 C 182.488281 67.679688 181.050781 67.828125 180.792969 67.6875 L 180.707031 67.746094 C 179.8125 67.546875 179.433594 66.816406 179.574219 65.546875 L 179.515625 65.605469 C 179.773438 64.515625 180.140625 63.394531 180.617188 62.246094 C 181.109375 61.589844 181.429688 61.195312 181.566406 61.054688 C 181.648438 60.976562 181.738281 60.839844 181.835938 60.640625 L 181.894531 60.578125 L 181.867188 60.550781 C 182.003906 60.253906 182.253906 59.589844 182.609375 58.558594 C 183.066406 57.210938 183.351562 56.425781 183.472656 56.207031 C 183.789062 55.613281 184.40625 53.550781 185.316406 50.023438 C 185.851562 48.136719 185.742188 46.632812 184.988281 45.5 C 184.453125 44.707031 183.691406 44.191406 182.699219 43.953125 C 182.042969 43.417969 181.332031 43.152344 180.558594 43.152344 C 179.445312 43.152344 178.027344 43.648438 176.300781 44.636719 C 175.984375 44.816406 175.714844 44.996094 175.496094 45.171875 C 175.28125 45.351562 175.082031 45.550781 174.902344 45.769531 C 174.722656 45.988281 174.585938 46.175781 174.484375 46.332031 C 174.386719 46.492188 174.25 46.734375 174.070312 47.0625 C 173.890625 47.390625 173.742188 47.652344 173.625 47.851562 C 173.367188 48.265625 173.207031 48.644531 173.148438 48.980469 C 173.085938 49.335938 173.148438 49.695312 173.324219 50.050781 C 173.386719 50.171875 173.414062 50.25 173.414062 50.289062 C 173.394531 50.84375 173.355469 51.261719 173.296875 51.539062 L 173.175781 52.015625 C 172.996094 52.847656 172.898438 53.351562 172.878906 53.53125 C 172.878906 53.589844 172.851562 53.777344 172.789062 54.097656 C 172.710938 54.511719 172.671875 54.800781 172.671875 54.957031 L 172.613281 56.265625 C 172.214844 57.160156 172 58.222656 171.972656 59.449219 C 171.941406 60.679688 172.0625 61.9375 172.328125 63.226562 C 172.597656 64.515625 172.863281 65.609375 173.132812 66.511719 C 173.398438 67.414062 173.691406 68.28125 174.011719 69.117188 C 173.929688 69.332031 173.78125 69.492188 173.5625 69.589844 L 173.652344 69.652344 C 173.355469 69.710938 172.886719 69.789062 172.253906 69.890625 L 171.777344 69.976562 C 171.679688 69.996094 171.214844 70.007812 170.378906 70.007812 L 169.277344 70.007812 C 169.160156 70.007812 168.722656 69.957031 167.96875 69.859375 C 167.273438 69.78125 166.859375 69.738281 166.71875 69.738281 L 166.570312 69.652344 C 166.351562 69.511719 166.183594 69.421875 166.066406 69.382812 L 165.914062 69.351562 C 165.339844 69.175781 164.875 68.980469 164.515625 68.773438 C 164.160156 68.566406 163.84375 68.261719 163.566406 67.867188 C 163.050781 67.152344 162.59375 66.714844 162.195312 66.558594 C 161.800781 66.398438 161.164062 66.46875 160.292969 66.765625 L 158.566406 66.585938 C 158.347656 66.546875 158.167969 66.625 158.03125 66.824219 C 157.890625 67.003906 157.871094 67.191406 157.972656 67.390625 C 158.109375 67.648438 158.21875 68.003906 158.296875 68.460938 C 158.378906 68.917969 158.492188 69.3125 158.640625 69.652344 C 158.789062 69.988281 159.050781 70.265625 159.429688 70.484375 C 159.566406 70.761719 159.742188 71.058594 159.949219 71.375 C 160.15625 71.691406 160.460938 72.144531 160.859375 72.730469 C 161.253906 73.3125 161.695312 73.859375 162.183594 74.363281 C 162.667969 74.871094 163.199219 75.371094 163.773438 75.867188 C 164.347656 76.363281 164.988281 76.769531 165.691406 77.085938 C 166.398438 77.402344 167.097656 77.582031 167.789062 77.621094 C 167.929688 77.640625 168.078125 77.640625 168.238281 77.621094 C 168.851562 77.542969 169.296875 77.460938 169.578125 77.382812 C 169.695312 77.324219 169.972656 77.292969 170.410156 77.292969 L 171.300781 77.175781 L 171.511719 77.085938 L 172.730469 76.34375 C 172.828125 76.28125 173.019531 76.183594 173.296875 76.046875 C 173.890625 75.726562 174.25 75.46875 174.367188 75.273438 L 174.515625 75.152344 C 175.328125 74.875 175.824219 74.796875 176.003906 74.914062 C 176.242188 75.054688 176.28125 75.355469 176.121094 75.820312 C 175.964844 76.289062 176.191406 76.71875 176.808594 77.117188 C 177.917969 77.867188 178.890625 77.820312 179.722656 76.96875 C 179.980469 76.667969 180.140625 76.351562 180.199219 76.015625 C 180.257812 75.679688 180.25 75.152344 180.167969 74.4375 C 180.128906 74.320312 180.109375 74.191406 180.109375 74.050781 C 179.890625 72.566406 179.808594 71.6875 179.855469 71.421875 C 179.90625 71.152344 180.230469 71 180.824219 70.960938 L 180.882812 70.960938 C 181.636719 70.9375 182.6875 70.730469 184.039062 70.335938 C 185.40625 69.9375 186.695312 69.679688 187.90625 69.5625 C 190.386719 69.242188 191.039062 68.519531 189.871094 67.390625 C 189.453125 66.972656 189.042969 66.765625 188.636719 66.765625 M 167.253906 74.378906 C 166.699219 74.300781 166.003906 74.011719 165.171875 73.515625 C 165.074219 73.457031 164.957031 73.394531 164.828125 73.324219 C 164.703125 73.253906 164.601562 73.199219 164.53125 73.160156 C 164.460938 73.121094 164.390625 73.070312 164.308594 73.011719 C 164.230469 72.953125 164.164062 72.902344 164.117188 72.863281 C 164.066406 72.824219 164.015625 72.777344 163.96875 72.730469 C 163.917969 72.679688 163.871094 72.632812 163.832031 72.59375 C 163.695312 72.398438 163.207031 71.882812 162.375 71.046875 L 162.582031 71.046875 C 162.703125 71.070312 162.851562 71.097656 163.03125 71.136719 C 163.207031 71.175781 163.347656 71.226562 163.445312 71.285156 C 163.863281 71.503906 164.457031 71.652344 165.230469 71.734375 C 165.589844 71.773438 165.894531 71.84375 166.152344 71.941406 C 166.410156 72.039062 166.628906 72.089844 166.808594 72.089844 C 167.167969 72.109375 167.710938 72.238281 168.445312 72.476562 L 171.0625 73.070312 L 172.371094 73.277344 L 169.605469 74.527344 Z M 176.957031 61.886719 L 176.242188 63.761719 C 176.160156 63.980469 176.082031 64.179688 176.003906 64.355469 L 175.734375 63.226562 L 175.648438 61.441406 C 175.765625 58.667969 175.933594 56.902344 176.152344 56.148438 C 176.292969 55.710938 176.46875 55.257812 176.6875 54.78125 C 176.828125 54.484375 176.894531 54.273438 176.894531 54.15625 C 176.9375 53.957031 177.203125 53.015625 177.699219 51.328125 C 178.058594 49.226562 178.503906 48.007812 179.039062 47.671875 L 179.277344 47.730469 L 179.515625 47.523438 C 179.59375 47.445312 179.671875 47.375 179.753906 47.316406 C 179.832031 47.253906 179.890625 47.214844 179.933594 47.195312 L 179.992188 47.167969 C 180.128906 47.304688 180.214844 47.691406 180.246094 48.328125 C 180.273438 48.960938 180.25 49.398438 180.167969 49.632812 C 180.148438 49.792969 180.109375 50.101562 180.050781 50.558594 C 180.011719 50.933594 179.992188 51.152344 179.992188 51.210938 C 179.910156 51.410156 179.792969 52.082031 179.632812 53.234375 L 178.296875 56.625 Z M 186.730469 75.332031 C 186.632812 75.667969 186.652344 76.054688 186.789062 76.492188 C 186.96875 77.144531 187.285156 77.503906 187.742188 77.5625 C 188.019531 77.621094 188.335938 77.578125 188.695312 77.429688 C 189.050781 77.28125 189.355469 77.085938 189.601562 76.847656 C 189.851562 76.609375 189.972656 76.390625 189.972656 76.195312 C 189.972656 75.957031 190.6875 75.058594 192.117188 73.5 C 193.546875 71.945312 195.003906 70.46875 196.492188 69.070312 C 197.976562 67.671875 198.78125 67.035156 198.902344 67.152344 C 198.980469 67.273438 198.820312 68.015625 198.425781 69.382812 C 197.96875 70.75 197.738281 72.070312 197.738281 73.339844 C 197.738281 74.210938 197.816406 74.800781 197.964844 75.109375 C 198.113281 75.414062 198.601562 75.984375 199.4375 76.820312 C 200.46875 77.847656 201.367188 78.464844 202.128906 78.664062 C 202.894531 78.859375 203.769531 78.730469 204.761719 78.273438 C 205.335938 78 206.28125 77.550781 207.589844 76.9375 C 208.085938 76.738281 208.570312 76.476562 209.046875 76.148438 C 209.523438 75.820312 209.941406 75.5 210.296875 75.183594 C 210.636719 74.84375 210.90625 74.523438 211.117188 74.214844 C 211.324219 73.910156 211.429688 73.636719 211.429688 73.398438 C 211.429688 72.84375 211.289062 72.550781 211.011719 72.519531 C 210.734375 72.492188 210.265625 72.722656 209.613281 73.21875 C 208.742188 73.933594 207.539062 74.6875 206.011719 75.480469 C 204.484375 76.273438 203.484375 76.667969 203.007812 76.667969 C 202.691406 76.667969 202.335938 76.515625 201.949219 76.207031 C 201.5625 75.902344 201.238281 75.515625 200.96875 75.046875 C 200.699219 74.582031 200.566406 74.152344 200.566406 73.753906 C 200.566406 73.199219 200.835938 72.1875 201.371094 70.722656 C 201.90625 69.253906 202.34375 68.273438 202.679688 67.777344 C 203.136719 67.203125 203.355469 66.585938 203.335938 65.933594 C 203.316406 65.277344 203.078125 64.722656 202.621094 64.265625 C 202.265625 63.949219 201.964844 63.773438 201.726562 63.730469 C 201.488281 63.691406 200.972656 63.773438 200.179688 63.96875 C 198.21875 64.386719 196.777344 64.914062 195.867188 65.546875 C 195.328125 65.921875 194.992188 66.101562 194.855469 66.082031 C 194.753906 66.0625 194.679688 65.882812 194.632812 65.546875 C 194.582031 65.210938 194.496094 65 194.378906 64.921875 C 194.039062 64.761719 193.664062 64.75 193.246094 64.878906 C 192.832031 65.007812 192.503906 65.199219 192.265625 65.457031 C 192.144531 65.578125 192.035156 65.703125 191.9375 65.84375 C 191.285156 66.617188 190.5 67.960938 189.585938 69.875 C 188.675781 71.789062 188.058594 73.011719 187.742188 73.546875 C 187.167969 74.398438 186.828125 74.992188 186.730469 75.332031 M 212.277344 58.140625 L 212.722656 57.753906 L 213.554688 57.1875 C 213.59375 57.148438 213.699219 56.996094 213.867188 56.726562 C 214.035156 56.460938 214.152344 56.316406 214.210938 56.296875 L 214.714844 55.941406 C 214.777344 55.898438 214.835938 55.859375 214.894531 55.820312 L 215.015625 55.730469 C 215.113281 55.652344 215.195312 55.628906 215.265625 55.65625 C 215.335938 55.6875 215.378906 55.707031 215.402344 55.71875 C 215.421875 55.726562 215.441406 55.742188 215.460938 55.761719 L 215.667969 55.671875 L 215.699219 55.703125 L 215.90625 55.792969 L 217.277344 56.445312 L 218.703125 57.636719 L 218.851562 57.367188 L 218.824219 57.308594 C 218.804688 57.25 218.792969 57.183594 218.792969 57.113281 C 218.792969 57.046875 218.8125 56.992188 218.851562 56.953125 C 218.890625 56.910156 218.886719 56.855469 218.835938 56.789062 C 218.789062 56.71875 218.792969 56.644531 218.851562 56.5625 C 218.933594 56.425781 218.941406 56.1875 218.882812 55.851562 L 218.167969 55.347656 L 216.800781 54.511719 L 216.027344 53.738281 L 215.339844 53.414062 L 215.074219 53.414062 L 213.851562 54.511719 L 212.78125 55.464844 L 212.691406 55.375 C 212.632812 55.316406 212.5625 55.304688 212.484375 55.347656 C 212.40625 55.382812 212.347656 55.492188 212.304688 55.671875 C 212.167969 56.050781 212.027344 56.386719 211.890625 56.683594 L 212.039062 57.695312 L 212.15625 57.636719 Z M 222.988281 73.398438 C 222.117188 73.773438 221.441406 74.042969 220.964844 74.203125 C 219.753906 74.558594 218.644531 74.804688 217.632812 74.945312 C 216.976562 75.0625 216.527344 75.09375 216.277344 75.035156 C 216.03125 74.972656 215.738281 74.796875 215.402344 74.5 C 214.90625 74.023438 214.65625 73.65625 214.65625 73.398438 C 214.65625 73.082031 215.105469 72.097656 215.996094 70.453125 C 216.214844 70.015625 216.527344 69.488281 216.933594 68.863281 C 217.339844 68.238281 217.683594 67.691406 217.960938 67.226562 C 218.238281 66.761719 218.515625 66.234375 218.792969 65.648438 C 219.070312 65.066406 219.253906 64.464844 219.34375 63.851562 C 219.433594 63.238281 219.4375 62.613281 219.359375 61.976562 C 219.199219 60.984375 218.265625 60.421875 216.5625 60.28125 C 214.933594 60.144531 213.574219 60.640625 212.484375 61.769531 C 212.226562 62.027344 211.898438 62.445312 211.503906 63.019531 C 211.382812 63.175781 211.28125 63.351562 211.191406 63.539062 C 211.101562 63.726562 211.015625 63.953125 210.9375 64.222656 C 210.859375 64.492188 210.796875 64.695312 210.757812 64.832031 C 210.71875 64.972656 210.664062 65.214844 210.59375 65.5625 C 210.523438 65.90625 210.480469 66.101562 210.460938 66.140625 C 210.164062 67.507812 210.015625 68.609375 210.015625 69.441406 C 210.015625 70.8125 210.402344 72.386719 211.175781 74.171875 C 211.613281 75.164062 212.046875 75.808594 212.484375 76.105469 C 212.722656 76.28125 213.125 76.492188 213.691406 76.730469 C 214.253906 76.96875 214.566406 77.105469 214.625 77.144531 C 215.28125 77.484375 216.332031 77.609375 217.78125 77.53125 C 219.148438 77.453125 220.449219 77.164062 221.679688 76.667969 L 221.859375 76.59375 C 221.976562 76.546875 222.109375 76.492188 222.257812 76.429688 C 222.410156 76.371094 222.503906 76.332031 222.542969 76.3125 C 223.058594 76.09375 223.542969 75.828125 224 75.507812 C 224.058594 75.46875 224.203125 75.375 224.433594 75.226562 C 224.660156 75.078125 224.828125 74.964844 224.9375 74.886719 C 225.046875 74.804688 225.199219 74.6875 225.398438 74.527344 C 225.597656 74.371094 225.746094 74.226562 225.84375 74.097656 C 225.945312 73.96875 226.035156 73.8125 226.113281 73.636719 C 226.191406 73.457031 226.230469 73.277344 226.230469 73.101562 C 226.230469 72.546875 226.070312 72.234375 225.742188 72.164062 C 225.414062 72.09375 225.03125 72.238281 224.597656 72.59375 C 224.398438 72.753906 223.859375 73.023438 222.988281 73.398438 M 213.019531 70.484375 C 212.882812 70.484375 212.789062 70.328125 212.738281 70.023438 C 212.6875 69.714844 212.703125 69.332031 212.78125 68.878906 C 212.863281 68.421875 212.960938 67.945312 213.078125 67.449219 C 213.179688 66.953125 213.328125 66.46875 213.527344 65.992188 C 213.726562 65.515625 213.921875 65.160156 214.121094 64.921875 C 214.359375 64.625 214.6875 64.53125 215.105469 64.640625 C 215.519531 64.75 215.726562 64.992188 215.726562 65.367188 C 215.726562 65.683594 215.320312 66.617188 214.507812 68.164062 C 213.695312 69.710938 213.199219 70.484375 213.019531 70.484375 M 238.789062 72.789062 C 238.164062 73.234375 237.703125 73.597656 237.40625 73.875 C 237.148438 74.113281 236.980469 74.265625 236.898438 74.335938 C 236.820312 74.40625 236.667969 74.527344 236.4375 74.707031 C 236.210938 74.886719 236.023438 75.015625 235.871094 75.09375 C 235.722656 75.171875 235.539062 75.25 235.324219 75.332031 C 235.105469 75.410156 234.886719 75.460938 234.667969 75.480469 C 234.152344 75.519531 233.769531 75.421875 233.523438 75.183594 C 233.273438 74.945312 233.148438 74.636719 233.148438 74.261719 C 233.148438 73.882812 233.179688 73.476562 233.238281 73.039062 C 233.339844 72.347656 233.230469 71.5625 232.914062 70.691406 C 232.734375 70.214844 232.59375 69.699219 232.496094 69.144531 C 232.398438 68.589844 232.308594 67.96875 232.226562 67.285156 C 232.148438 66.601562 232.078125 66.082031 232.019531 65.726562 C 231.859375 64.8125 231.601562 63.820312 231.246094 62.75 C 231.207031 62.652344 231.140625 62.445312 231.050781 62.125 C 230.964844 61.808594 230.890625 61.5625 230.828125 61.382812 C 230.769531 61.203125 230.675781 61 230.546875 60.773438 C 230.417969 60.546875 230.273438 60.382812 230.113281 60.28125 C 229.777344 60.023438 229.375 59.890625 228.910156 59.882812 C 228.445312 59.871094 228.125 59.976562 227.957031 60.191406 C 227.789062 60.410156 227.65625 61.132812 227.554688 62.363281 C 227.496094 62.898438 227.398438 63.542969 227.257812 64.296875 C 227.121094 65.070312 226.941406 65.824219 226.722656 66.558594 C 226.484375 67.488281 226.324219 68.042969 226.246094 68.222656 C 226.066406 68.558594 225.859375 68.828125 225.621094 69.027344 C 225.601562 69.046875 225.476562 69.125 225.25 69.265625 C 225.023438 69.402344 224.867188 69.53125 224.789062 69.652344 C 224.75 69.75 224.71875 69.957031 224.699219 70.273438 C 224.679688 70.632812 224.609375 70.980469 224.492188 71.316406 C 224.371094 71.632812 224.222656 71.859375 224.046875 72 C 223.945312 72.097656 223.789062 72.167969 223.570312 72.207031 C 223.351562 72.25 223.203125 72.289062 223.121094 72.328125 C 222.90625 72.445312 222.746094 72.753906 222.648438 73.25 C 222.605469 73.386719 222.605469 73.578125 222.648438 73.8125 C 222.6875 74.390625 222.792969 74.945312 222.972656 75.480469 C 223.292969 76.410156 223.558594 76.945312 223.777344 77.085938 C 223.855469 77.144531 223.964844 77.179688 224.105469 77.191406 C 224.242188 77.199219 224.371094 77.203125 224.492188 77.203125 L 224.820312 77.203125 C 225.292969 77.246094 225.878906 77.3125 226.574219 77.414062 C 227.546875 77.550781 228.230469 77.632812 228.628906 77.652344 C 229.023438 77.671875 229.351562 77.601562 229.609375 77.441406 C 229.808594 77.34375 230.011719 77.265625 230.21875 77.203125 C 230.425781 77.144531 230.675781 77.117188 230.964844 77.117188 C 231.25 77.117188 231.464844 77.121094 231.601562 77.128906 C 231.742188 77.140625 232.003906 77.164062 232.390625 77.203125 C 232.777344 77.246094 233.011719 77.265625 233.089844 77.265625 C 233.347656 77.503906 233.816406 77.523438 234.488281 77.324219 C 235.144531 77.285156 235.667969 77.183594 236.066406 77.027344 C 236.484375 76.828125 236.957031 76.453125 237.496094 75.894531 C 237.652344 75.816406 237.753906 75.765625 237.792969 75.746094 C 238.308594 75.53125 238.804688 75.261719 239.28125 74.945312 C 239.339844 74.90625 239.4375 74.835938 239.578125 74.734375 C 239.714844 74.636719 239.835938 74.554688 239.933594 74.484375 C 240.035156 74.414062 240.152344 74.328125 240.292969 74.230469 C 240.429688 74.132812 240.554688 74.039062 240.664062 73.949219 C 240.773438 73.859375 240.882812 73.753906 240.992188 73.636719 C 241.101562 73.515625 241.191406 73.402344 241.257812 73.292969 C 241.328125 73.183594 241.382812 73.0625 241.421875 72.921875 C 241.460938 72.785156 241.480469 72.65625 241.480469 72.535156 C 241.480469 71.960938 241.316406 71.636719 240.992188 71.570312 C 240.664062 71.5 240.28125 71.652344 239.847656 72.03125 C 239.765625 72.089844 239.414062 72.34375 238.789062 72.789062 M 228.984375 74.050781 C 228.746094 74.09375 228.453125 74.070312 228.105469 73.992188 C 227.757812 73.914062 227.4375 73.792969 227.140625 73.636719 C 226.839844 73.476562 226.644531 73.328125 226.546875 73.191406 C 226.464844 73.070312 226.683594 72.460938 227.199219 71.359375 C 227.714844 70.261719 228.09375 69.542969 228.328125 69.203125 C 228.507812 68.964844 228.65625 68.589844 228.777344 68.074219 C 228.875 67.519531 228.992188 67.242188 229.132812 67.242188 C 229.253906 67.242188 229.558594 67.964844 230.054688 69.414062 C 230.550781 70.9375 230.71875 72.046875 230.5625 72.730469 C 230.402344 73.414062 229.875 73.855469 228.984375 74.050781 " />
  <path d="M 18.328125 28.988281 C 18.328125 29.324219 18.105469 29.609375 17.660156 29.835938 C 17.214844 30.0625 16.851562 30.078125 16.574219 29.878906 C 16.15625 29.542969 15.179688 29.628906 13.644531 30.132812 C 12.105469 30.640625 11.109375 31.21875 10.652344 31.875 C 10.273438 32.371094 10.085938 32.710938 10.085938 32.902344 C 10.085938 33.089844 10.253906 33.441406 10.59375 33.957031 C 10.890625 34.453125 11.1875 34.746094 11.484375 34.835938 C 11.785156 34.921875 12.429688 34.9375 13.421875 34.878906 C 14.808594 34.761719 15.582031 34.789062 15.742188 34.96875 C 15.859375 35.207031 15.445312 36.347656 14.492188 38.390625 C 13.816406 39.820312 13.429688 40.742188 13.332031 41.15625 C 13.230469 41.574219 13.320312 42.019531 13.597656 42.496094 C 13.976562 43.191406 14.480469 43.539062 15.117188 43.539062 C 15.414062 43.539062 15.65625 43.457031 15.84375 43.300781 C 16.035156 43.140625 16.222656 42.859375 16.410156 42.453125 C 16.597656 42.046875 16.863281 41.347656 17.199219 40.355469 C 17.476562 39.601562 17.703125 38.996094 17.882812 38.539062 C 18.082031 38.101562 18.28125 37.675781 18.476562 37.261719 C 18.695312 36.863281 18.894531 36.59375 19.074219 36.457031 C 19.253906 36.296875 19.472656 36.148438 19.730469 36.007812 C 19.964844 35.851562 20.21875 35.792969 20.488281 35.832031 C 20.753906 35.871094 21.078125 35.890625 21.453125 35.890625 C 22.703125 36.03125 24.40625 35.710938 26.558594 34.9375 C 28.710938 34.164062 30.183594 33.332031 30.976562 32.4375 C 31.433594 31.984375 31.917969 31.753906 32.433594 31.753906 C 32.730469 31.753906 33.054688 31.621094 33.402344 31.351562 C 33.75 31.085938 34.179688 30.625 34.695312 29.96875 C 35.230469 29.316406 35.957031 28.34375 36.867188 27.054688 C 38.710938 24.375 39.65625 22.328125 39.695312 20.910156 C 39.734375 19.492188 38.84375 18.125 37.015625 16.816406 C 35.589844 15.6875 34.269531 15.042969 33.058594 14.882812 C 31.730469 14.683594 29.746094 14.539062 27.109375 14.449219 C 24.46875 14.363281 22.921875 14.375 22.464844 14.496094 C 22.386719 14.496094 21.820312 14.71875 20.769531 15.164062 C 19.71875 15.613281 19.042969 15.835938 18.746094 15.835938 C 18.25 15.835938 17.585938 16.136719 16.753906 16.742188 C 15.917969 17.347656 15.503906 17.820312 15.503906 18.15625 C 15.503906 19.03125 15.972656 19.589844 16.917969 19.835938 C 17.859375 20.085938 18.726562 19.882812 19.519531 19.226562 C 19.757812 19.007812 20.308594 18.765625 21.171875 18.496094 C 22.035156 18.230469 22.542969 18.324219 22.703125 18.78125 C 22.703125 19.019531 22.632812 19.21875 22.496094 19.375 C 22.375 19.535156 22.25 19.695312 22.109375 19.851562 C 21.96875 20.011719 21.902344 20.199219 21.902344 20.417969 C 21.902344 20.835938 21.296875 22.332031 20.085938 24.910156 C 18.914062 27.351562 18.328125 28.710938 18.328125 28.988281 M 36.003906 20.417969 C 36.125 20.914062 36.101562 21.398438 35.929688 21.875 C 35.761719 22.351562 35.332031 23.074219 34.636719 24.046875 C 32.335938 27.636719 29.023438 30.316406 24.699219 32.082031 C 23.527344 32.578125 22.554688 32.824219 21.78125 32.824219 C 20.628906 32.824219 20.332031 32.242188 20.890625 31.070312 C 23.429688 25.933594 24.699219 23.085938 24.699219 22.53125 C 24.699219 22.074219 24.828125 21.769531 25.085938 21.621094 C 25.34375 21.472656 25.472656 20.945312 25.472656 20.03125 C 25.472656 18.820312 25.878906 18.015625 26.691406 17.621094 C 27.503906 17.222656 28.972656 17.125 31.09375 17.324219 C 32.601562 17.460938 33.695312 17.699219 34.367188 18.035156 C 34.964844 18.394531 35.347656 18.683594 35.515625 18.898438 C 35.683594 19.117188 35.847656 19.625 36.003906 20.417969 M 62.742188 40.085938 C 62.5625 40.1875 62.1875 40.316406 61.609375 40.472656 C 61.570312 40.492188 61.472656 40.539062 61.3125 40.605469 C 61.15625 40.675781 61.003906 40.730469 60.867188 40.769531 C 60.726562 40.8125 60.628906 40.820312 60.570312 40.800781 C 60.449219 40.761719 60.28125 40.582031 60.0625 40.265625 C 59.546875 39.589844 59.25 39 59.171875 38.496094 C 59.089844 37.988281 59.160156 37.230469 59.378906 36.21875 C 59.675781 34.910156 60.003906 33.738281 60.359375 32.707031 C 60.617188 31.992188 60.757812 31.515625 60.777344 31.277344 C 60.796875 31.039062 60.707031 30.761719 60.507812 30.445312 C 60.230469 30.007812 59.945312 29.785156 59.644531 29.777344 C 59.347656 29.765625 58.863281 29.960938 58.1875 30.355469 C 57.730469 30.632812 57.425781 30.785156 57.265625 30.800781 C 57.109375 30.820312 56.910156 30.722656 56.671875 30.503906 C 56.492188 30.285156 56.394531 29.988281 56.371094 29.613281 C 56.351562 29.214844 56.433594 28.390625 56.613281 27.144531 C 56.828125 25.199219 56.828125 24.085938 56.613281 23.808594 C 56.433594 23.613281 56.09375 23.488281 55.597656 23.4375 C 55.105469 23.390625 54.707031 23.453125 54.410156 23.632812 C 54.191406 23.808594 53.894531 24.285156 53.515625 25.058594 C 53.140625 25.855469 52.953125 26.410156 52.953125 26.726562 C 52.953125 26.984375 52.9375 27.242188 52.90625 27.5 C 52.875 27.757812 52.828125 28.03125 52.757812 28.316406 C 52.6875 28.605469 52.628906 28.847656 52.578125 29.046875 C 52.53125 29.246094 52.445312 29.503906 52.328125 29.820312 C 52.207031 30.136719 52.125 30.371094 52.074219 30.519531 C 52.023438 30.667969 51.925781 30.925781 51.777344 31.292969 C 51.628906 31.660156 51.53125 31.902344 51.492188 32.023438 C 51.015625 33.253906 50.648438 34.234375 50.390625 34.96875 L 50.390625 35 L 50.378906 35.042969 L 50.363281 35.085938 C 50.085938 35.582031 49.796875 35.960938 49.5 36.21875 C 49.359375 36.296875 49.242188 36.378906 49.144531 36.457031 C 48.964844 36.574219 48.707031 36.753906 48.371094 36.992188 L 48.308594 37.023438 C 47.972656 36.746094 47.722656 36.523438 47.566406 36.367188 C 47.40625 36.207031 47.257812 35.984375 47.117188 35.695312 C 46.980469 35.410156 46.890625 35.078125 46.851562 34.699219 C 46.753906 33.769531 46.703125 32.449219 46.703125 30.742188 C 46.703125 30.347656 46.671875 30.039062 46.613281 29.820312 C 46.554688 29.601562 46.445312 29.382812 46.285156 29.164062 C 46.128906 28.925781 45.878906 28.621094 45.542969 28.242188 C 44.886719 27.550781 44.3125 27.152344 43.816406 27.054688 C 43.320312 26.953125 42.726562 27.121094 42.03125 27.558594 C 41.613281 27.855469 41.136719 28.054688 40.601562 28.152344 C 39.453125 28.433594 38.480469 28.890625 37.6875 29.523438 C 36.894531 30.136719 36.070312 31.148438 35.214844 32.558594 C 34.503906 33.667969 34.074219 34.640625 33.9375 35.472656 C 33.796875 36.308594 33.867188 37.410156 34.144531 38.777344 C 34.324219 39.628906 34.496094 40.226562 34.667969 40.5625 C 34.835938 40.898438 35.15625 41.285156 35.632812 41.722656 C 36.070312 42.140625 36.398438 42.398438 36.617188 42.496094 C 36.773438 42.574219 36.953125 42.617188 37.152344 42.617188 C 37.25 42.617188 37.359375 42.605469 37.476562 42.585938 C 37.816406 42.488281 38.359375 42.398438 39.113281 42.316406 C 39.769531 42.296875 40.464844 42.070312 41.199219 41.632812 C 41.773438 41.257812 42.238281 40.988281 42.597656 40.832031 C 42.875 40.75 43.191406 40.445312 43.546875 39.90625 C 43.648438 39.75 43.796875 39.472656 43.996094 39.074219 C 44.351562 38.300781 44.667969 37.835938 44.945312 37.675781 C 45.164062 37.578125 45.355469 37.5625 45.511719 37.632812 C 45.671875 37.699219 45.828125 37.875 45.988281 38.152344 L 46.078125 38.300781 C 46.234375 38.578125 46.375 38.777344 46.496094 38.898438 C 47.050781 39.390625 47.613281 39.621094 48.191406 39.582031 C 48.328125 39.582031 48.488281 39.53125 48.667969 39.433594 L 48.816406 39.402344 C 48.914062 39.382812 49.054688 39.328125 49.230469 39.238281 C 49.410156 39.148438 49.613281 39.03125 49.839844 38.882812 C 50.070312 38.730469 50.332031 38.523438 50.628906 38.257812 C 50.925781 37.988281 51.230469 37.675781 51.539062 37.320312 C 51.84375 36.960938 52.167969 36.511719 52.503906 35.964844 C 52.84375 35.421875 53.160156 34.820312 53.457031 34.164062 L 53.515625 34.136719 C 53.558594 33.996094 53.589844 33.886719 53.621094 33.808594 L 53.664062 33.6875 C 53.921875 33.6875 54.296875 33.757812 54.78125 33.898438 C 55.265625 34.035156 55.648438 34.105469 55.925781 34.105469 C 56.105469 34.105469 56.253906 34.113281 56.371094 34.136719 C 56.472656 34.15625 56.558594 34.183594 56.625 34.226562 C 56.695312 34.265625 56.730469 34.335938 56.730469 34.433594 L 56.730469 34.851562 C 56.570312 36.257812 56.472656 37.269531 56.433594 37.882812 C 56.394531 38.539062 56.433594 39.132812 56.550781 39.671875 C 56.628906 40.027344 56.816406 40.523438 57.101562 41.15625 C 57.390625 41.792969 57.652344 42.191406 57.890625 42.347656 C 58.089844 42.46875 58.53125 42.546875 59.214844 42.585938 C 59.898438 42.625 60.648438 42.601562 61.460938 42.511719 C 62.273438 42.421875 62.898438 42.257812 63.335938 42.019531 C 63.554688 41.960938 63.714844 41.902344 63.8125 41.84375 C 63.933594 41.78125 64.011719 41.703125 64.050781 41.605469 C 64.128906 41.566406 64.179688 41.535156 64.199219 41.515625 C 64.65625 41.316406 65.113281 41.058594 65.570312 40.742188 C 65.605469 40.703125 65.730469 40.613281 65.941406 40.472656 C 66.148438 40.335938 66.300781 40.226562 66.402344 40.144531 C 66.5 40.066406 66.640625 39.949219 66.816406 39.789062 C 66.996094 39.628906 67.136719 39.488281 67.234375 39.359375 C 67.332031 39.230469 67.417969 39.078125 67.488281 38.910156 C 67.554688 38.742188 67.589844 38.570312 67.589844 38.390625 C 67.589844 37.855469 67.441406 37.550781 67.144531 37.484375 C 66.847656 37.414062 66.492188 37.558594 66.074219 37.914062 C 65.28125 38.589844 64.167969 39.3125 62.742188 40.085938 M 42.445312 36.960938 C 42.089844 37.378906 41.863281 37.765625 41.761719 38.125 C 41.664062 38.460938 41.257812 38.917969 40.542969 39.492188 C 40.34375 39.648438 40.175781 39.78125 40.035156 39.878906 C 39.917969 39.957031 39.789062 40.039062 39.652344 40.117188 C 39.53125 40.195312 39.402344 40.25 39.261719 40.28125 C 39.125 40.308594 38.984375 40.335938 38.847656 40.355469 L 38.25 40.355469 C 37.777344 40.355469 37.4375 40.316406 37.238281 40.234375 C 37.042969 40.15625 36.894531 40.007812 36.792969 39.789062 C 36.695312 39.550781 36.625 39.164062 36.585938 38.628906 C 36.566406 37.933594 36.476562 37.457031 36.316406 37.199219 C 36.199219 36.902344 36.238281 36.40625 36.4375 35.710938 C 36.652344 35.019531 36.980469 34.265625 37.417969 33.453125 C 37.875 32.65625 38.359375 32.003906 38.875 31.488281 C 39.453125 30.871094 39.839844 30.515625 40.035156 30.414062 C 40.097656 30.375 40.167969 30.355469 40.246094 30.355469 C 40.34375 30.355469 40.453125 30.40625 40.574219 30.503906 C 40.75 30.625 40.929688 30.863281 41.109375 31.21875 C 41.289062 31.597656 41.375 31.914062 41.375 32.171875 C 41.375 32.566406 41.683594 33.074219 42.296875 33.6875 C 42.695312 34.085938 42.945312 34.382812 43.042969 34.582031 C 43.121094 34.78125 43.121094 35.085938 43.042969 35.503906 C 42.960938 36.160156 42.765625 36.644531 42.445312 36.960938 M 43.546875 31.1875 C 43.449219 30.574219 43.449219 30.179688 43.546875 30 C 43.566406 29.960938 43.609375 29.921875 43.667969 29.878906 C 43.804688 29.960938 43.875 30.367188 43.875 31.101562 C 43.875 31.578125 43.84375 31.882812 43.785156 32.023438 C 43.707031 31.902344 43.628906 31.625 43.546875 31.1875 M 76.117188 40.234375 C 76.097656 40.234375 75.894531 40.304688 75.507812 40.445312 C 75.121094 40.582031 74.742188 40.714844 74.375 40.847656 C 74.007812 40.972656 73.652344 41.117188 73.304688 41.277344 C 72.957031 41.4375 72.753906 41.554688 72.695312 41.632812 C 72.335938 41.851562 72.011719 41.960938 71.710938 41.960938 C 71.21875 41.980469 70.679688 41.734375 70.105469 41.21875 C 68.835938 40.085938 68.707031 38.003906 69.71875 34.96875 C 69.917969 34.371094 70.230469 33.199219 70.65625 31.441406 C 71.082031 29.6875 71.476562 28.195312 71.832031 26.964844 C 72.1875 25.734375 72.476562 25.097656 72.695312 25.058594 C 73.109375 25.019531 73.628906 24.960938 74.242188 24.882812 C 74.875 24.800781 75.492188 24.742188 76.085938 24.703125 C 76.683594 24.664062 77.21875 24.632812 77.695312 24.613281 C 78.167969 24.613281 78.488281 24.625 78.644531 24.644531 C 79.042969 24.703125 79.261719 24.542969 79.300781 24.167969 C 79.339844 23.890625 79.214844 23.699219 78.929688 23.601562 C 78.640625 23.503906 77.832031 23.382812 76.503906 23.246094 C 74.597656 23.046875 73.597656 22.867188 73.496094 22.707031 C 73.398438 22.589844 73.539062 22.191406 73.914062 21.519531 C 74.230469 20.945312 74.628906 20.238281 75.105469 19.40625 C 75.402344 18.910156 75.589844 18.414062 75.667969 17.917969 C 75.75 17.421875 75.847656 16.996094 75.96875 16.636719 C 76.066406 16.359375 76.226562 15.972656 76.445312 15.476562 C 77.21875 13.671875 77.605469 12.511719 77.605469 11.996094 C 77.605469 11.101562 76.769531 11.054688 75.105469 11.847656 C 74.589844 12.105469 74.09375 12.472656 73.617188 12.949219 C 73.140625 13.425781 72.703125 14.015625 72.308594 14.71875 C 71.910156 15.421875 71.601562 16.003906 71.386719 16.460938 C 71.167969 16.914062 70.890625 17.542969 70.550781 18.335938 C 70.472656 18.492188 70.414062 18.613281 70.375 18.691406 C 69.480469 20.792969 68.765625 22.09375 68.230469 22.589844 C 67.875 22.964844 67.511719 23.179688 67.144531 23.230469 C 66.777344 23.277344 65.851562 23.234375 64.363281 23.097656 C 63.886719 23.074219 63.421875 23.121094 62.964844 23.230469 C 62.507812 23.339844 62.144531 23.460938 61.878906 23.601562 C 61.609375 23.738281 61.351562 23.882812 61.105469 24.03125 C 60.855469 24.183594 60.722656 24.265625 60.703125 24.285156 C 60.40625 24.425781 60.277344 24.652344 60.316406 24.96875 C 60.335938 25.027344 60.390625 25.074219 60.480469 25.105469 C 60.570312 25.132812 60.6875 25.148438 60.835938 25.148438 L 61.730469 25.148438 C 61.878906 25.148438 61.992188 25.160156 62.070312 25.179688 C 62.46875 25.238281 63.152344 25.269531 64.125 25.269531 C 64.542969 25.25 64.949219 25.25 65.34375 25.269531 C 66 25.328125 66.445312 25.425781 66.683594 25.566406 L 66.402344 27.871094 C 66.210938 29.410156 66.015625 30.976562 65.804688 32.574219 C 65.597656 34.171875 65.484375 35.019531 65.464844 35.117188 C 65.402344 35.792969 65.375 36.496094 65.375 37.230469 C 65.375 37.964844 65.417969 38.753906 65.507812 39.59375 C 65.597656 40.4375 65.785156 41.222656 66.074219 41.945312 C 66.359375 42.671875 66.734375 43.242188 67.1875 43.65625 C 67.566406 43.976562 68.039062 44.210938 68.601562 44.371094 C 69.167969 44.53125 69.757812 44.59375 70.375 44.566406 C 70.988281 44.535156 71.574219 44.46875 72.128906 44.371094 C 72.683594 44.273438 73.21875 44.132812 73.734375 43.953125 C 74.113281 43.835938 74.597656 43.601562 75.195312 43.257812 C 75.789062 42.910156 76.320312 42.589844 76.785156 42.304688 C 77.253906 42.015625 77.496094 41.863281 77.515625 41.84375 C 78.050781 41.683594 78.566406 41.476562 79.0625 41.21875 C 79.121094 41.179688 79.246094 41.109375 79.433594 41.007812 C 79.621094 40.910156 79.777344 40.832031 79.894531 40.769531 C 80.015625 40.710938 80.164062 40.628906 80.339844 40.519531 C 80.519531 40.410156 80.664062 40.304688 80.773438 40.207031 C 80.882812 40.105469 80.996094 39.996094 81.113281 39.878906 C 81.234375 39.757812 81.328125 39.625 81.398438 39.476562 C 81.46875 39.328125 81.511719 39.183594 81.53125 39.042969 C 81.570312 38.488281 81.433594 38.15625 81.113281 38.046875 C 80.796875 37.9375 80.410156 38.042969 79.957031 38.359375 C 78.984375 38.976562 77.703125 39.601562 76.117188 40.234375 M 96.277344 40.234375 C 96.117188 40.316406 95.820312 40.429688 95.382812 40.578125 C 94.949219 40.726562 94.679688 40.820312 94.582031 40.859375 C 93.925781 40.820312 93.5 40.703125 93.300781 40.503906 C 93.0625 40.265625 92.945312 39.773438 92.945312 39.03125 C 92.945312 38.285156 93.042969 37.496094 93.242188 36.664062 C 93.339844 36.347656 93.449219 35.941406 93.570312 35.445312 C 93.628906 35.265625 93.6875 35.042969 93.746094 34.773438 C 93.808594 34.507812 93.855469 34.324219 93.894531 34.226562 C 93.976562 33.90625 94.085938 33.550781 94.222656 33.152344 C 94.363281 32.738281 94.539062 32.359375 94.757812 32.023438 C 95.195312 31.1875 95.398438 30.585938 95.367188 30.207031 C 95.339844 29.832031 95.046875 29.492188 94.492188 29.195312 C 93.835938 28.859375 93.390625 28.734375 93.152344 28.824219 C 92.914062 28.914062 92.535156 29.316406 92.023438 30.027344 C 91.425781 30.84375 90.921875 31.753906 90.503906 32.765625 C 89.949219 34.273438 88.957031 35.761719 87.527344 37.230469 C 86.097656 38.699219 84.980469 39.371094 84.164062 39.253906 L 83.925781 39.222656 C 82.757812 38.808594 83.390625 36.207031 85.832031 31.425781 C 86.128906 30.871094 86.28125 30.503906 86.292969 30.328125 C 86.300781 30.148438 86.179688 29.921875 85.921875 29.640625 C 85.542969 29.246094 85.246094 29.046875 85.027344 29.046875 C 84.574219 29.046875 83.957031 29.414062 83.183594 30.148438 C 82.171875 31.121094 81.214844 32.296875 80.3125 33.675781 C 79.410156 35.054688 78.839844 36.316406 78.601562 37.46875 C 78.382812 38.558594 78.535156 39.496094 79.0625 40.28125 C 79.589844 41.0625 80.308594 41.613281 81.21875 41.933594 C 82.132812 42.25 83.09375 42.359375 84.105469 42.257812 C 85.316406 42.101562 86.4375 41.675781 87.46875 40.980469 L 88.957031 39.878906 L 90.117188 40.980469 C 91.050781 41.851562 91.78125 42.417969 92.320312 42.675781 C 92.417969 42.714844 92.542969 42.765625 92.691406 42.824219 C 92.839844 42.882812 93.078125 42.957031 93.40625 43.046875 C 93.730469 43.136719 94.023438 43.179688 94.28125 43.179688 C 94.539062 43.179688 94.839844 43.132812 95.175781 43.03125 C 95.433594 43.03125 95.796875 42.964844 96.261719 42.824219 C 96.726562 42.683594 97.019531 42.554688 97.140625 42.4375 C 97.179688 42.378906 97.902344 41.863281 99.3125 40.890625 C 99.371094 40.851562 99.515625 40.757812 99.742188 40.605469 C 99.972656 40.457031 100.140625 40.34375 100.25 40.265625 C 100.359375 40.1875 100.511719 40.0625 100.710938 39.894531 C 100.910156 39.726562 101.058594 39.582031 101.15625 39.460938 C 101.257812 39.34375 101.34375 39.195312 101.425781 39.015625 C 101.503906 38.835938 101.542969 38.660156 101.542969 38.480469 C 101.542969 37.90625 101.378906 37.585938 101.050781 37.527344 C 100.726562 37.46875 100.34375 37.617188 99.90625 37.972656 C 99.015625 38.6875 97.804688 39.441406 96.277344 40.234375 M 110.664062 40.355469 C 110.484375 40.433594 110.132812 40.582031 109.605469 40.800781 C 109.082031 41.019531 108.632812 41.21875 108.269531 41.394531 C 107.902344 41.574219 107.6875 41.714844 107.628906 41.8125 C 107.609375 41.714844 107.597656 41.574219 107.597656 41.394531 C 107.597656 40.960938 107.847656 40.195312 108.34375 39.105469 C 108.878906 38.074219 109.144531 37.46875 109.144531 37.289062 C 109.144531 37.089844 109.273438 36.832031 109.53125 36.515625 C 109.75 36.257812 110.011719 35.710938 110.320312 34.878906 C 110.628906 34.046875 110.890625 33.171875 111.109375 32.261719 C 111.230469 31.625 111.285156 31.03125 111.273438 30.476562 C 111.265625 29.921875 111.078125 29.425781 110.722656 28.988281 C 110.367188 28.550781 109.832031 28.273438 109.117188 28.152344 C 108.5 28.035156 107.855469 28.054688 107.183594 28.214844 C 106.507812 28.371094 105.878906 28.625 105.292969 28.972656 C 104.707031 29.320312 104.132812 29.734375 103.566406 30.222656 C 103 30.707031 102.503906 31.199219 102.078125 31.695312 C 101.652344 32.191406 101.25 32.707031 100.875 33.242188 C 100.238281 34.175781 99.753906 35.234375 99.414062 36.425781 C 99.078125 37.617188 99.007812 38.570312 99.207031 39.28125 C 99.882812 41.882812 101.4375 42.765625 103.878906 41.933594 C 104.792969 41.632812 105.308594 41.535156 105.425781 41.632812 C 105.585938 41.792969 105.335938 42.367188 104.683594 43.359375 C 104.027344 44.351562 103.480469 44.96875 103.046875 45.203125 C 102.886719 45.285156 102.351562 45.621094 101.4375 46.214844 C 100.746094 46.671875 100.21875 47 99.863281 47.199219 C 98.59375 47.871094 97.582031 48.578125 96.828125 49.3125 C 96.746094 49.371094 96.621094 49.480469 96.453125 49.636719 C 96.285156 49.796875 96.148438 49.925781 96.039062 50.023438 C 95.929688 50.125 95.800781 50.253906 95.652344 50.414062 C 95.503906 50.570312 95.386719 50.71875 95.308594 50.859375 C 95.230469 50.996094 95.15625 51.152344 95.085938 51.320312 C 95.015625 51.488281 94.980469 51.652344 94.980469 51.808594 C 94.980469 52.109375 95.070312 52.542969 95.25 53.121094 C 95.667969 54.46875 96.679688 54.746094 98.285156 53.953125 C 99.039062 53.554688 99.789062 53.125 100.53125 52.660156 C 101.273438 52.191406 101.71875 51.839844 101.855469 51.601562 C 101.953125 51.464844 102.113281 51.246094 102.332031 50.949219 C 102.550781 50.671875 102.757812 50.382812 102.957031 50.085938 C 103.15625 49.789062 103.382812 49.449219 103.640625 49.074219 C 103.898438 48.714844 104.128906 48.386719 104.324219 48.089844 C 104.542969 47.773438 104.730469 47.464844 104.890625 47.167969 C 105.070312 46.851562 105.207031 46.59375 105.308594 46.394531 C 105.644531 45.621094 106.328125 44.945312 107.359375 44.371094 C 108.054688 43.996094 108.621094 43.648438 109.058594 43.332031 C 109.414062 43.210938 109.820312 43.042969 110.277344 42.824219 C 110.734375 42.605469 111.160156 42.386719 111.554688 42.167969 C 111.953125 41.953125 112.179688 41.824219 112.242188 41.78125 C 112.757812 41.585938 113.25 41.328125 113.730469 41.007812 C 113.765625 40.96875 113.902344 40.875 114.128906 40.726562 C 114.359375 40.578125 114.527344 40.464844 114.636719 40.382812 C 114.746094 40.304688 114.898438 40.179688 115.097656 40.011719 C 115.296875 39.84375 115.445312 39.695312 115.542969 39.566406 C 115.644531 39.4375 115.730469 39.28125 115.8125 39.105469 C 115.890625 38.925781 115.929688 38.757812 115.929688 38.597656 C 115.929688 38.023438 115.765625 37.699219 115.4375 37.632812 C 115.113281 37.5625 114.730469 37.714844 114.292969 38.09375 C 113.402344 38.785156 112.191406 39.542969 110.664062 40.355469 M 99.535156 51.394531 C 98.226562 52.464844 97.363281 52.800781 96.945312 52.40625 C 96.765625 52.226562 97.089844 51.667969 97.914062 50.722656 C 98.738281 49.78125 99.671875 48.882812 100.722656 48.03125 C 101.777344 47.179688 102.492188 46.753906 102.867188 46.753906 C 103.125 46.753906 103.066406 47.070312 102.6875 47.703125 C 101.894531 49.09375 100.84375 50.324219 99.535156 51.394531 M 104.117188 39.3125 C 103.285156 39.847656 102.648438 40.070312 102.210938 39.984375 C 101.777344 39.894531 101.46875 39.480469 101.289062 38.746094 C 101.132812 38.132812 101.378906 37.128906 102.035156 35.742188 C 102.210938 35.34375 102.492188 34.949219 102.867188 34.550781 C 103.242188 34.15625 103.605469 33.8125 103.953125 33.523438 C 104.300781 33.238281 104.511719 33.035156 104.59375 32.914062 C 104.851562 32.539062 105.371094 32.105469 106.15625 31.621094 C 106.9375 31.132812 107.460938 30.929688 107.71875 31.011719 C 107.957031 31.089844 108.035156 31.417969 107.957031 31.992188 C 107.894531 32.609375 107.71875 33.136719 107.421875 33.585938 C 107.121094 34.03125 106.972656 34.472656 106.972656 34.910156 C 106.972656 35.128906 106.410156 36.160156 105.277344 38.003906 C 104.878906 38.660156 104.492188 39.09375 104.117188 39.3125 M 130.4375 40.234375 C 130.277344 40.316406 129.980469 40.429688 129.542969 40.578125 C 129.105469 40.726562 128.839844 40.820312 128.738281 40.859375 C 128.085938 40.820312 127.660156 40.703125 127.460938 40.503906 C 127.222656 40.265625 127.101562 39.773438 127.101562 39.03125 C 127.101562 38.285156 127.203125 37.496094 127.402344 36.664062 C 127.5 36.347656 127.609375 35.941406 127.726562 35.445312 C 127.789062 35.265625 127.847656 35.042969 127.90625 34.773438 C 127.964844 34.507812 128.015625 34.324219 128.054688 34.226562 C 128.136719 33.90625 128.242188 33.550781 128.382812 33.152344 C 128.523438 32.738281 128.699219 32.359375 128.917969 32.023438 C 129.355469 31.1875 129.558594 30.585938 129.527344 30.207031 C 129.5 29.832031 129.207031 29.492188 128.652344 29.195312 C 127.996094 28.859375 127.550781 28.734375 127.3125 28.824219 C 127.074219 28.914062 126.695312 29.316406 126.179688 30.027344 C 125.585938 30.84375 125.082031 31.753906 124.664062 32.765625 C 124.109375 34.273438 123.117188 35.761719 121.6875 37.230469 C 120.261719 38.699219 119.136719 39.371094 118.324219 39.253906 L 118.085938 39.222656 C 116.917969 38.808594 117.550781 36.207031 119.992188 31.425781 C 120.289062 30.871094 120.441406 30.503906 120.453125 30.328125 C 120.464844 30.148438 120.339844 29.921875 120.082031 29.640625 C 119.703125 29.246094 119.40625 29.046875 119.1875 29.046875 C 118.730469 29.046875 118.117188 29.414062 117.34375 30.148438 C 116.332031 31.121094 115.375 32.296875 114.472656 33.675781 C 113.570312 35.054688 113 36.316406 112.761719 37.46875 C 112.542969 38.558594 112.695312 39.496094 113.222656 40.28125 C 113.746094 41.0625 114.46875 41.613281 115.378906 41.933594 C 116.292969 42.25 117.253906 42.359375 118.265625 42.257812 C 119.476562 42.101562 120.597656 41.675781 121.628906 40.980469 L 123.117188 39.878906 L 124.277344 40.980469 C 125.207031 41.851562 125.945312 42.417969 126.480469 42.675781 C 126.578125 42.714844 126.703125 42.765625 126.851562 42.824219 C 127 42.882812 127.238281 42.957031 127.566406 43.046875 C 127.894531 43.136719 128.183594 43.179688 128.441406 43.179688 C 128.699219 43.179688 128.996094 43.132812 129.335938 43.03125 C 129.59375 43.03125 129.957031 42.964844 130.421875 42.824219 C 130.886719 42.683594 131.179688 42.554688 131.300781 42.4375 C 131.339844 42.378906 132.0625 41.863281 133.472656 40.890625 C 133.53125 40.851562 133.675781 40.757812 133.902344 40.605469 C 134.132812 40.457031 134.300781 40.34375 134.410156 40.265625 C 134.519531 40.1875 134.671875 40.0625 134.871094 39.894531 C 135.066406 39.726562 135.21875 39.582031 135.316406 39.460938 C 135.414062 39.34375 135.503906 39.195312 135.582031 39.015625 C 135.664062 38.835938 135.703125 38.660156 135.703125 38.480469 C 135.703125 37.90625 135.539062 37.585938 135.210938 37.527344 C 134.886719 37.46875 134.503906 37.617188 134.066406 37.972656 C 133.171875 38.6875 131.964844 39.441406 130.4375 40.234375 M 136.34375 22.441406 L 136.789062 22.054688 L 137.621094 21.488281 C 137.660156 21.449219 137.765625 21.296875 137.933594 21.027344 C 138.105469 20.757812 138.21875 20.617188 138.277344 20.597656 L 138.78125 20.238281 C 138.84375 20.199219 138.902344 20.160156 138.960938 20.121094 L 139.082031 20.03125 C 139.179688 19.953125 139.265625 19.925781 139.332031 19.957031 C 139.402344 19.984375 139.449219 20.007812 139.46875 20.015625 C 139.488281 20.027344 139.507812 20.039062 139.527344 20.0625 L 139.734375 19.972656 L 139.765625 20 L 139.972656 20.089844 L 141.34375 20.746094 L 142.769531 21.933594 L 142.917969 21.667969 L 142.890625 21.609375 C 142.867188 21.546875 142.859375 21.484375 142.859375 21.414062 C 142.859375 21.34375 142.878906 21.289062 142.917969 21.25 C 142.957031 21.210938 142.953125 21.15625 142.902344 21.085938 C 142.855469 21.015625 142.859375 20.945312 142.917969 20.863281 C 143 20.726562 143.007812 20.488281 142.949219 20.148438 L 142.234375 19.644531 L 140.867188 18.808594 L 140.09375 18.035156 L 139.40625 17.710938 L 139.140625 17.710938 L 137.921875 18.808594 L 136.847656 19.761719 L 136.757812 19.671875 C 136.699219 19.613281 136.628906 19.605469 136.550781 19.644531 C 136.472656 19.683594 136.414062 19.792969 136.371094 19.972656 C 136.234375 20.347656 136.09375 20.683594 135.957031 20.984375 L 136.105469 21.996094 L 136.222656 21.933594 Z M 147.054688 37.707031 C 146.183594 38.082031 145.507812 38.351562 145.03125 38.507812 C 143.820312 38.867188 142.710938 39.113281 141.699219 39.253906 C 141.042969 39.371094 140.59375 39.402344 140.34375 39.34375 C 140.097656 39.28125 139.804688 39.105469 139.46875 38.808594 C 138.972656 38.332031 138.722656 37.964844 138.722656 37.707031 C 138.722656 37.386719 139.167969 36.40625 140.0625 34.761719 C 140.28125 34.324219 140.59375 33.792969 141 33.167969 C 141.40625 32.542969 141.75 31.996094 142.027344 31.53125 C 142.304688 31.066406 142.582031 30.539062 142.859375 29.953125 C 143.136719 29.371094 143.320312 28.769531 143.410156 28.152344 C 143.5 27.539062 143.503906 26.914062 143.425781 26.28125 C 143.265625 25.289062 142.332031 24.722656 140.628906 24.582031 C 139 24.445312 137.640625 24.941406 136.550781 26.070312 C 136.292969 26.328125 135.964844 26.746094 135.570312 27.320312 C 135.449219 27.480469 135.347656 27.652344 135.257812 27.839844 C 135.167969 28.03125 135.082031 28.257812 135.003906 28.527344 C 134.925781 28.792969 134.863281 28.996094 134.824219 29.136719 C 134.785156 29.273438 134.730469 29.519531 134.660156 29.867188 C 134.59375 30.210938 134.546875 30.40625 134.527344 30.445312 C 134.230469 31.816406 134.082031 32.914062 134.082031 33.75 C 134.082031 35.117188 134.46875 36.695312 135.242188 38.480469 C 135.679688 39.472656 136.113281 40.117188 136.550781 40.414062 C 136.789062 40.59375 137.191406 40.800781 137.757812 41.039062 C 138.320312 41.277344 138.632812 41.417969 138.695312 41.453125 C 139.347656 41.792969 140.398438 41.921875 141.847656 41.84375 C 143.214844 41.761719 144.515625 41.476562 145.746094 40.980469 L 145.925781 40.90625 C 146.042969 40.855469 146.175781 40.800781 146.328125 40.742188 C 146.476562 40.679688 146.570312 40.640625 146.609375 40.621094 C 147.125 40.402344 147.609375 40.136719 148.066406 39.820312 C 148.125 39.78125 148.269531 39.683594 148.5 39.535156 C 148.726562 39.386719 148.894531 39.273438 149.003906 39.195312 C 149.113281 39.113281 149.265625 38.996094 149.464844 38.835938 C 149.664062 38.679688 149.8125 38.535156 149.914062 38.40625 C 150.011719 38.277344 150.101562 38.125 150.179688 37.945312 C 150.257812 37.765625 150.296875 37.585938 150.296875 37.410156 C 150.296875 36.851562 150.136719 36.539062 149.808594 36.472656 C 149.480469 36.402344 149.097656 36.546875 148.660156 36.902344 C 148.464844 37.0625 147.929688 37.328125 147.054688 37.707031 M 137.085938 34.789062 C 136.949219 34.789062 136.851562 34.636719 136.804688 34.328125 C 136.753906 34.023438 136.769531 33.640625 136.847656 33.183594 C 136.929688 32.726562 137.027344 32.25 137.144531 31.753906 C 137.246094 31.257812 137.394531 30.773438 137.59375 30.296875 C 137.789062 29.820312 137.988281 29.464844 138.1875 29.226562 C 138.425781 28.925781 138.753906 28.835938 139.167969 28.941406 C 139.585938 29.050781 139.792969 29.296875 139.792969 29.671875 C 139.792969 29.988281 139.386719 30.921875 138.574219 32.46875 C 137.761719 34.015625 137.265625 34.789062 137.085938 34.789062 M 162.855469 37.097656 C 162.230469 37.542969 161.769531 37.90625 161.472656 38.183594 C 161.214844 38.417969 161.046875 38.574219 160.964844 38.644531 C 160.886719 38.710938 160.734375 38.835938 160.503906 39.015625 C 160.277344 39.195312 160.089844 39.324219 159.941406 39.402344 C 159.789062 39.480469 159.605469 39.5625 159.390625 39.640625 C 159.171875 39.71875 158.953125 39.769531 158.734375 39.789062 C 158.21875 39.828125 157.835938 39.730469 157.589844 39.492188 C 157.339844 39.253906 157.21875 38.945312 157.21875 38.570312 C 157.21875 38.191406 157.246094 37.785156 157.304688 37.347656 C 157.40625 36.65625 157.296875 35.871094 156.980469 35 C 156.800781 34.523438 156.660156 34.007812 156.5625 33.453125 C 156.460938 32.894531 156.375 32.277344 156.292969 31.589844 C 156.214844 30.90625 156.144531 30.386719 156.085938 30.027344 C 155.925781 29.117188 155.667969 28.125 155.3125 27.054688 C 155.273438 26.953125 155.207031 26.746094 155.117188 26.429688 C 155.03125 26.113281 154.957031 25.863281 154.894531 25.683594 C 154.835938 25.507812 154.742188 25.304688 154.613281 25.074219 C 154.484375 24.847656 154.339844 24.683594 154.183594 24.582031 C 153.84375 24.324219 153.441406 24.191406 152.976562 24.183594 C 152.511719 24.171875 152.191406 24.277344 152.023438 24.492188 C 151.855469 24.710938 151.722656 25.4375 151.621094 26.667969 C 151.5625 27.203125 151.464844 27.847656 151.324219 28.601562 C 151.1875 29.375 151.007812 30.128906 150.789062 30.863281 C 150.550781 31.792969 150.394531 32.351562 150.3125 32.527344 C 150.136719 32.867188 149.925781 33.132812 149.6875 33.332031 C 149.667969 33.351562 149.542969 33.429688 149.316406 33.570312 C 149.085938 33.710938 148.933594 33.835938 148.855469 33.957031 C 148.816406 34.054688 148.785156 34.265625 148.765625 34.582031 C 148.746094 34.9375 148.675781 35.285156 148.558594 35.625 C 148.4375 35.941406 148.289062 36.167969 148.109375 36.308594 C 148.011719 36.40625 147.851562 36.476562 147.636719 36.515625 C 147.417969 36.554688 147.269531 36.59375 147.1875 36.636719 C 146.96875 36.753906 146.8125 37.0625 146.710938 37.558594 C 146.671875 37.695312 146.671875 37.882812 146.710938 38.125 C 146.753906 38.699219 146.863281 39.253906 147.039062 39.789062 C 147.359375 40.722656 147.625 41.257812 147.84375 41.394531 C 147.921875 41.453125 148.03125 41.488281 148.171875 41.5 C 148.308594 41.507812 148.4375 41.515625 148.558594 41.515625 L 148.886719 41.515625 C 149.359375 41.554688 149.945312 41.625 150.640625 41.722656 C 151.613281 41.863281 152.296875 41.941406 152.695312 41.960938 C 153.089844 41.980469 153.417969 41.910156 153.675781 41.753906 C 153.875 41.652344 154.078125 41.574219 154.285156 41.515625 C 154.496094 41.453125 154.742188 41.425781 155.03125 41.425781 C 155.316406 41.425781 155.53125 41.429688 155.667969 41.441406 C 155.808594 41.449219 156.070312 41.476562 156.457031 41.515625 C 156.84375 41.554688 157.078125 41.574219 157.15625 41.574219 C 157.414062 41.8125 157.882812 41.832031 158.554688 41.632812 C 159.210938 41.59375 159.734375 41.496094 160.132812 41.335938 C 160.550781 41.136719 161.027344 40.761719 161.5625 40.207031 C 161.71875 40.125 161.820312 40.078125 161.859375 40.054688 C 162.375 39.839844 162.871094 39.570312 163.347656 39.253906 C 163.40625 39.214844 163.503906 39.144531 163.644531 39.042969 C 163.785156 38.945312 163.902344 38.863281 164 38.792969 C 164.101562 38.722656 164.21875 38.640625 164.359375 38.539062 C 164.496094 38.441406 164.621094 38.347656 164.730469 38.257812 C 164.839844 38.167969 164.949219 38.0625 165.058594 37.945312 C 165.167969 37.824219 165.253906 37.710938 165.324219 37.601562 C 165.394531 37.492188 165.449219 37.367188 165.488281 37.230469 C 165.527344 37.089844 165.546875 36.960938 165.546875 36.84375 C 165.546875 36.269531 165.386719 35.945312 165.058594 35.875 C 164.730469 35.804688 164.347656 35.960938 163.910156 36.335938 C 163.832031 36.398438 163.480469 36.648438 162.855469 37.097656 M 153.050781 38.359375 C 152.8125 38.402344 152.519531 38.382812 152.171875 38.300781 C 151.824219 38.222656 151.503906 38.101562 151.207031 37.945312 C 150.910156 37.785156 150.710938 37.636719 150.609375 37.496094 C 150.53125 37.378906 150.75 36.769531 151.265625 35.667969 C 151.78125 34.566406 152.15625 33.847656 152.394531 33.511719 C 152.574219 33.273438 152.722656 32.894531 152.84375 32.378906 C 152.941406 31.824219 153.0625 31.546875 153.199219 31.546875 C 153.320312 31.546875 153.625 32.269531 154.121094 33.71875 C 154.617188 35.246094 154.785156 36.351562 154.628906 37.035156 C 154.46875 37.722656 153.945312 38.160156 153.050781 38.359375 " />
</svg>
