<svg xmlns="http://www.w3.org/2000/svg" viewBox="0 0 252.283 167.244" fill="#a8a8d8" aria-hidden="true">
  <path d="M 249.425781 17.828125 C 240.214844 26.046875 230.171875 33.832031 220.242188 41.042969 C 213.203125 46.128906 204.054688 51.875 197.632812 58.363281 C 196.320312 59.609375 194.652344 61.113281 193.28125 62.035156 C 189.453125 64.226562 192.949219 59.121094 194.050781 57.96875 C 201.152344 49.765625 210.40625 43.667969 218.941406 36.921875 C 224.976562 32.164062 231.113281 27.128906 236.96875 22.308594 C 240.535156 19.425781 243.257812 16.835938 247 14.5 C 249.882812 12.65625 252.710938 10.929688 254.449219 8.042969 C 254.8125 7.523438 254.917969 7.085938 255.382812 6.792969 C 255.945312 6.617188 256.015625 7.589844 256.074219 8.066406 C 256.296875 12.300781 252.375 14.992188 249.546875 17.714844 " />
  <path d="M 42.40625 63.515625 C 36.515625 62.910156 30.910156 60.5 25.542969 58.335938 C 14.960938 54.480469 2.472656 47.882812 -8.085938 42.136719 C -11.800781 39.960938 -9.789062 40.15625 -7.246094 40.882812 C 5.5 44.679688 18.460938 53.367188 31.433594 57.84375 C 33.101562 58.515625 52.679688 64.023438 42.546875 63.53125 " />
  <path d="M 87.234375 122.742188 C 86.796875 122.550781 86.265625 122.457031 85.664062 122.488281 C 83.449219 122.605469 81.574219 124.320312 79.753906 125.398438 C 76.847656 127.117188 73.628906 128.28125 70.484375 129.484375 C 67.828125 130.503906 65.625 132.609375 62.910156 133.398438 C 59.632812 134.351562 56.15625 134.527344 52.863281 135.550781 C 49.730469 136.519531 47.289062 138.339844 44.410156 139.808594 C 41.46875 141.308594 38.128906 141.691406 35.011719 142.691406 C 28.675781 144.71875 22.933594 149.085938 17.710938 153.078125 C 15.421875 154.828125 4.828125 161.191406 6.148438 164.945312 C 7.875 169.839844 19.113281 159.695312 20.738281 158.40625 C 26.078125 154.175781 31.460938 150.074219 37.65625 147.164062 C 43.804688 144.273438 50.417969 142.988281 56.683594 140.484375 C 59.726562 139.269531 62.6875 138.125 65.859375 137.292969 C 68.828125 136.515625 71.113281 135.578125 73.261719 133.355469 C 75.46875 131.066406 78.367188 131.722656 81.183594 130.699219 C 83.597656 129.820312 86.59375 128.476562 88.011719 126.203125 C 88.980469 124.65625 88.5 123.289062 87.234375 122.742188 " />
  <path d="M 67.558594 76.554688 C 62.253906 73.84375 55.800781 73.292969 49.90625 72.695312 C 45.011719 72.246094 40.070312 71.164062 35.058594 70.835938 C 23.308594 69.972656 11.644531 66.71875 -0.0898438 65.691406 C -5.011719 65.71875 -0.15625 67.996094 1.738281 68.484375 C 9.871094 70.789062 18.363281 71.433594 26.707031 72.3125 C 32.878906 72.707031 39.070312 74.257812 45.21875 74.949219 C 51.867188 75.59375 58.179688 78.578125 64.8125 80 C 68.214844 80.835938 72.394531 79.59375 67.722656 76.652344 Z M 67.558594 76.554688 " />
  <path d="M 234.167969 81.941406 C 235.652344 82.355469 252.492188 79.726562 247.304688 83.441406 C 244.160156 85.328125 237.460938 85.300781 233.644531 84.722656 C 232.113281 84.515625 229.347656 83.421875 230.96875 82.304688 C 231.84375 81.914062 232.921875 81.980469 233.988281 81.945312 " />
  <path d="M 86.417969 109.867188 C 86.398438 109.742188 86.351562 109.617188 86.269531 109.492188 C 85.378906 108.128906 82.441406 109.148438 81.289062 109.46875 C 79.613281 109.9375 77.972656 110.253906 76.246094 110.484375 C 72.695312 110.964844 69.136719 111.773438 65.582031 112.15625 C 63.90625 112.335938 62.363281 111.953125 60.710938 111.761719 C 58.867188 111.546875 57.066406 111.675781 55.226562 111.859375 C 51.601562 112.222656 48.050781 112.53125 44.40625 112.347656 C 40.722656 112.160156 37.046875 111.925781 33.359375 112.1875 C 29.6875 112.449219 26.1875 112.8125 22.542969 112.089844 C 15.320312 110.652344 8.058594 109.375 0.769531 108.347656 C -2.644531 107.867188 -6.066406 107.675781 -9.472656 108.304688 C -11.234375 108.632812 -14.3125 109.144531 -15.042969 111.101562 C -15.84375 113.25 -12.742188 112.929688 -11.488281 112.839844 C -7.792969 112.574219 -4.160156 111.863281 -0.445312 111.925781 C 6.765625 112.039062 13.835938 113.710938 20.992188 114.417969 C 28.304688 115.140625 35.609375 115.585938 42.960938 115.253906 C 46.554688 115.089844 50.054688 115.886719 53.636719 115.988281 C 57.308594 116.089844 61.019531 115.832031 64.640625 115.210938 C 71.242188 114.078125 78.53125 115.238281 84.644531 111.867188 C 85.304688 111.5 86.550781 110.726562 86.417969 109.867188 " />
  <path d="M 84.628906 116.894531 C 82.96875 113.972656 75.625 118.800781 74.054688 119.472656 C 71.550781 120.546875 69 120.160156 66.378906 120.613281 C 63.53125 121.109375 60.734375 122.101562 57.917969 122.765625 C 55.496094 123.335938 50.542969 125.730469 55.773438 126.757812 C 60.800781 127.746094 65.917969 125.273438 70.476562 123.539062 C 73.449219 122.40625 76.511719 121.8125 79.546875 120.898438 C 80.835938 120.507812 85.414062 119.21875 84.8125 117.320312 C 84.761719 117.164062 84.703125 117.019531 84.628906 116.894531 " />
  <path d="M 82.746094 58.308594 C 84.132812 56.324219 71.828125 49.773438 71.828125 49.773438 C 71.828125 49.773438 49.667969 38.59375 38.585938 32.933594 C 32.128906 29.53125 25.78125 25.605469 19.808594 21.382812 C 13.875 17.277344 7.316406 11.835938 1.195312 8.496094 C -9.0625 3.207031 3.539062 14.054688 5.980469 15.71875 C 13.789062 21.539062 21.667969 26.8125 30.15625 31.808594 C 40.5625 37.804688 51.546875 42.78125 61.554688 48.757812 C 64.988281 50.546875 81.355469 60.292969 82.746094 58.308594 " />
  <path d="M 265.183594 52.148438 C 262.773438 52.539062 260.457031 54.082031 258.375 55.117188 C 254.59375 56.988281 250.800781 58.757812 246.867188 60.28125 C 239.015625 63.324219 230.925781 66.117188 222.683594 67.886719 C 214.484375 69.644531 205.902344 70.015625 197.933594 72.746094 C 195.09375 73.722656 192.296875 74.9375 189.320312 75.441406 C 187.933594 75.675781 184.835938 76.371094 183.695312 75.179688 C 182 73.410156 186.195312 71.457031 187.3125 71.023438 C 190.566406 69.757812 193.972656 68.894531 197.25 67.675781 C 205.058594 64.773438 212.53125 60.746094 219.820312 56.746094 C 227.054688 52.777344 234.109375 48.445312 241.617188 45.003906 C 244.996094 43.453125 248.625 42.53125 251.980469 40.953125 C 252.949219 40.496094 258.574219 37.21875 256.261719 35.625 C 255.394531 35.03125 253.695312 35.582031 252.78125 35.8125 C 251.09375 36.238281 249.519531 36.941406 248.003906 37.789062 C 244.5625 39.714844 241.289062 41.851562 237.757812 43.628906 C 230.160156 47.449219 222.328125 50.78125 214.613281 54.355469 C 210.863281 56.089844 207.101562 57.828125 203.46875 59.796875 C 199.996094 61.683594 197.015625 64.160156 193.714844 66.296875 C 191.929688 67.449219 188.417969 69.558594 186.203125 68.265625 C 183.285156 66.566406 186.421875 62.269531 187.667969 60.5625 C 192.351562 54.140625 197.488281 48.175781 202.53125 42.035156 C 207.921875 35.476562 213.167969 28.789062 218.277344 22.007812 C 219.523438 20.351562 230.125 5.984375 225.972656 4.9375 C 223.289062 4.265625 220.636719 8.992188 219.625 10.761719 C 217.691406 14.164062 215.753906 17.554688 213.695312 20.886719 C 209.355469 27.921875 204.625 34.699219 199.527344 41.207031 C 194.421875 47.722656 188.910156 53.886719 183.117188 59.800781 C 179.203125 63.800781 175.261719 67.804688 171.160156 71.609375 C 168.214844 74.339844 164.921875 77.457031 161.125 78.929688 C 159.949219 79.386719 158.394531 79.753906 157.429688 78.691406 C 155.546875 76.625 157.65625 73.484375 159.046875 71.828125 C 161.417969 69.003906 164.289062 66.574219 166.886719 63.964844 C 169.800781 61.035156 172.582031 57.96875 175.265625 54.828125 C 180.527344 48.671875 185.429688 42.175781 189.566406 35.207031 C 193.609375 28.390625 196.730469 21.152344 200.242188 14.070312 C 201.976562 10.578125 203.84375 7.140625 206.046875 3.917969 C 208.230469 0.71875 210.960938 -2.121094 212.871094 -5.503906 C 213.902344 -7.335938 216.058594 -10.972656 214.660156 -13.039062 C 213.5625 -14.652344 211.738281 -13.421875 210.691406 -12.449219 C 207.734375 -9.695312 205.738281 -5.804688 203.898438 -2.257812 C 200.09375 5.078125 196.949219 12.738281 193.214844 20.109375 C 189.496094 27.464844 185.363281 34.585938 180.761719 41.425781 C 176.171875 48.238281 171.199219 54.773438 166.210938 61.296875 C 163.804688 64.445312 161.359375 67.570312 158.730469 70.535156 C 157.421875 72.011719 156.0625 73.441406 154.648438 74.820312 C 153.660156 75.78125 152.65625 76.910156 151.402344 77.53125 C 148.511719 78.96875 149.050781 75.726562 149.773438 74.128906 C 150.984375 71.460938 152.886719 69.101562 154.519531 66.691406 C 159.226562 59.730469 163.636719 52.628906 167.699219 45.269531 C 171.8125 37.816406 175.726562 30.253906 179.550781 22.648438 C 183.359375 15.0625 187.054688 7.417969 190.535156 -0.324219 C 192.285156 -4.226562 193.988281 -8.144531 195.675781 -12.070312 C 196.863281 -14.832031 199.839844 -18.878906 198.621094 -22.03125 C 197.394531 -25.207031 194.089844 -19.300781 193.613281 -18.320312 C 191.824219 -14.65625 190.402344 -10.789062 188.796875 -7.042969 C 185.402344 0.882812 181.960938 8.792969 178.421875 16.660156 C 174.960938 24.339844 171.375 31.964844 167.398438 39.390625 C 163.386719 46.890625 159.046875 54.210938 154.789062 61.570312 C 152.847656 64.925781 150.679688 68.226562 149.195312 71.820312 C 148.449219 73.632812 147.683594 77.492188 145.285156 77.800781 C 144.253906 75.511719 145.566406 72.570312 146.589844 70.519531 C 147.855469 67.984375 149.308594 65.546875 150.585938 63.015625 C 153.527344 57.195312 156.140625 51.214844 158.824219 45.273438 C 164.152344 33.472656 170.144531 22.035156 175.800781 10.398438 C 178.605469 4.621094 181.117188 -1.253906 183.457031 -7.234375 C 184.613281 -10.195312 185.75 -13.167969 187.121094 -16.039062 C 188.382812 -18.671875 189.769531 -21.261719 190.679688 -24.046875 C 191.035156 -25.136719 192.371094 -28.765625 190.695312 -29.523438 C 188.949219 -30.3125 187.449219 -26.957031 186.902344 -25.855469 C 184.191406 -20.394531 181.886719 -14.785156 179.761719 -9.070312 C 177.527344 -3.0625 175.371094 2.980469 172.921875 8.90625 C 170.457031 14.867188 167.582031 20.636719 164.640625 26.375 C 163.160156 29.265625 161.644531 32.140625 160.175781 35.039062 C 158.941406 37.484375 158.089844 40.738281 156.191406 42.761719 C 154.59375 44.464844 153.96875 41.839844 154.007812 40.519531 C 154.085938 37.710938 155.957031 35.257812 157.277344 32.902344 C 163.410156 21.949219 164.945312 9.019531 168.339844 -2.921875 C 170.089844 -9.097656 172.164062 -15.21875 174.757812 -21.09375 C 175.996094 -23.894531 177.386719 -26.625 178.589844 -29.441406 C 179.488281 -31.535156 180.9375 -34.246094 180.691406 -36.613281 C 180.40625 -39.351562 177.617188 -38.714844 176.3125 -37.074219 C 174.566406 -34.875 173.867188 -32.066406 172.84375 -29.503906 C 170.46875 -23.546875 168.507812 -17.507812 166.476562 -11.429688 C 165.980469 -9.941406 162.265625 2.710938 159.429688 -0.0429688 C 158.152344 -1.285156 158.472656 -4.109375 158.632812 -5.640625 C 158.953125 -8.769531 159.640625 -11.828125 159.824219 -14.976562 C 160.195312 -21.328125 159.976562 -27.890625 159.414062 -34.226562 C 159.214844 -36.53125 159.523438 -40.839844 157.511719 -42.472656 C 155.074219 -44.445312 154.828125 -38.503906 154.824219 -37.320312 C 154.777344 -24.105469 154.570312 -10.898438 153.972656 2.304688 C 153.382812 15.394531 152.226562 28.4375 149.964844 41.347656 C 149.40625 44.519531 148.78125 47.675781 148.144531 50.832031 C 147.875 52.1875 147.632812 53.554688 147.238281 54.882812 C 146.945312 55.867188 146.421875 57.921875 145.394531 58.410156 C 142.910156 59.589844 144.144531 53.4375 144.355469 52.628906 C 145.144531 49.574219 145.6875 46.582031 146.03125 43.445312 C 147.46875 30.304688 147.214844 17.1875 145.699219 4.070312 C 144.9375 -2.519531 143.945312 -9.082031 143.179688 -15.671875 C 142.414062 -22.261719 142.308594 -28.835938 141.902344 -35.449219 C 141.8125 -36.953125 141.652344 -38.441406 141.46875 -39.933594 C 141.339844 -40.984375 141.304688 -42.265625 140.621094 -43.140625 C 139.886719 -44.085938 138.90625 -44.199219 138.296875 -43.144531 C 137.132812 -41.144531 137.351562 -37.976562 137.417969 -35.738281 C 137.785156 -22.875 140.210938 -10.203125 141.890625 2.519531 C 143.621094 15.660156 143.457031 28.609375 142.4375 41.800781 C 141.941406 48.242188 141.453125 54.679688 141.035156 61.128906 C 140.9375 62.582031 140.992188 65.019531 139.726562 66.03125 C 138.597656 66.933594 137.667969 65.835938 137.171875 64.855469 C 135.878906 62.300781 135.6875 59.175781 135.359375 56.371094 C 134.59375 49.894531 133.773438 43.449219 132.613281 37.027344 C 130.257812 23.925781 128.070312 10.800781 125.898438 -2.335938 C 124.808594 -8.929688 123.636719 -15.507812 122.511719 -22.09375 C 121.957031 -25.339844 121.375 -28.59375 120.988281 -31.863281 C 120.667969 -34.566406 120.6875 -37.375 120.011719 -40.023438 C 119.710938 -41.207031 118.917969 -43.464844 117.507812 -41.929688 C 116.066406 -40.363281 116.308594 -37.542969 116.335938 -35.589844 C 116.429688 -29.113281 117.601562 -22.597656 118.410156 -16.179688 C 120.0625 -3.078125 121.816406 10.0625 124.144531 23.0625 C 125.292969 29.457031 127.296875 35.671875 128.398438 42.066406 C 128.632812 43.421875 128.953125 45.632812 127.820312 46.699219 C 126.15625 48.257812 124.230469 45.824219 123.433594 44.539062 C 120.332031 39.542969 118.421875 33.855469 116.101562 28.480469 C 113.5 22.457031 110.9375 16.417969 108.761719 10.222656 C 104.453125 -2.035156 101.582031 -14.71875 98.773438 -27.382812 C 97.707031 -32.195312 97.019531 -37.050781 96.089844 -41.875 C 95.902344 -42.859375 95.578125 -44.902344 94.335938 -45.125 C 92.539062 -45.445312 92.214844 -42.773438 92.195312 -41.597656 C 92.09375 -36.179688 93.644531 -30.605469 94.765625 -25.351562 C 96.113281 -19.019531 97.59375 -12.710938 99.320312 -6.46875 C 102.769531 5.988281 107.425781 18.011719 112.851562 29.738281 C 115.558594 35.59375 118.460938 41.355469 121.316406 47.140625 C 124.195312 52.96875 126.714844 58.941406 129.449219 64.835938 C 130.464844 67.027344 131.867188 69.183594 132.613281 71.484375 C 133.0625 72.863281 133.054688 76.027344 130.773438 74.929688 C 128.972656 74.0625 127.726562 71.679688 126.742188 70.078125 C 125.140625 67.472656 123.746094 64.753906 122.3125 62.054688 C 116.324219 50.765625 108.972656 40.242188 101.742188 29.730469 C 94.707031 19.5 87.484375 9.226562 82.558594 -2.230469 C 80.046875 -8.078125 78.15625 -14.164062 76.347656 -20.253906 C 75.453125 -23.277344 74.578125 -26.304688 73.652344 -29.316406 C 73.308594 -30.429688 72.746094 -33.558594 71.230469 -33.726562 C 68.261719 -34.058594 71.914062 -20.8125 72.28125 -19.429688 C 73.878906 -13.457031 75.945312 -7.644531 78.527344 -2.019531 C 83.804688 9.46875 90.808594 20.144531 97.707031 30.707031 C 101.191406 36.039062 104.648438 41.460938 108.488281 46.542969 C 111.558594 50.605469 115.511719 54.898438 116.570312 60.046875 C 117.074219 62.5 115.289062 62.902344 113.5 61.554688 C 111.4375 60 110.089844 57.792969 108.832031 55.585938 C 105.726562 50.113281 101.695312 45.351562 97.460938 40.730469 C 89.015625 31.519531 80.347656 22.449219 73.054688 12.273438 C 69.535156 7.363281 66.757812 1.945312 63.128906 -2.878906 C 62.023438 -4.347656 60.761719 -6.105469 59.195312 -7.121094 C 57.03125 -8.519531 57.117188 -6.246094 57.714844 -4.726562 C 59.792969 0.59375 63.539062 5.011719 66.910156 9.542969 C 70.746094 14.703125 74.847656 19.652344 78.945312 24.605469 C 87.355469 34.773438 95.671875 45.023438 104.144531 55.140625 C 106.246094 57.644531 108.332031 60.160156 110.328125 62.75 C 111.855469 64.730469 114.417969 66.996094 115.019531 69.496094 C 115.695312 72.320312 110.761719 69.070312 110.003906 68.496094 C 107.742188 66.773438 105.75 64.726562 103.816406 62.652344 C 95.128906 53.320312 85.707031 44.800781 76.519531 35.972656 C 67.210938 27.03125 58.027344 17.828125 49.832031 7.839844 C 46.398438 3.652344 43.324219 -0.804688 40.21875 -5.234375 C 39.160156 -6.742188 36.457031 -11.269531 34.179688 -10.839844 C 30.503906 -10.140625 37.84375 -0.125 38.6875 1.066406 C 42.207031 6.050781 46.253906 10.640625 50.519531 14.992188 C 59.347656 24 69.035156 32.09375 78.484375 40.425781 C 83.324219 44.691406 88.027344 49.066406 92.550781 53.664062 C 94.589844 55.742188 96.636719 57.808594 98.734375 59.824219 C 99.746094 60.792969 101.664062 62.351562 101.636719 63.910156 C 101.574219 67.5 95.789062 62.605469 94.6875 61.835938 C 93.507812 61.011719 87.625 57.707031 89.246094 61.859375 C 90.089844 64.019531 92.921875 65.410156 94.800781 66.496094 C 97.5 68.058594 100.34375 69.339844 103.125 70.738281 C 104.449219 71.40625 114.1875 75.945312 110.910156 78.523438 C 109.058594 79.976562 104.726562 78.039062 102.851562 77.375 C 97.902344 75.617188 92.890625 74.039062 87.835938 72.597656 C 81.699219 70.851562 75.503906 69.304688 69.28125 67.890625 C 66.09375 67.164062 62.898438 66.46875 59.71875 65.695312 C 56.664062 64.949219 53.707031 63.734375 50.617188 63.148438 C 49.71875 62.976562 47.953125 62.617188 47.226562 63.425781 C 46.480469 64.253906 47.582031 65.097656 48.238281 65.566406 C 50.464844 67.160156 53.445312 67.679688 56.042969 68.402344 C 62.339844 70.148438 68.777344 71.402344 75.136719 72.914062 C 78.71875 73.765625 82.5625 74.453125 86 75.832031 C 86.996094 76.230469 88.847656 76.90625 89.101562 78.132812 C 89.492188 80.035156 86.777344 80.144531 85.574219 80.085938 C 84.226562 80.023438 81.132812 79.46875 81.007812 81.570312 C 80.917969 83.109375 82.785156 84.765625 83.941406 85.519531 C 86.132812 86.953125 88.96875 87.488281 91.511719 87.882812 C 94.574219 88.359375 97.660156 88.625 100.757812 88.691406 C 107.144531 88.828125 113.613281 87.828125 119.980469 88.277344 C 121.550781 88.390625 124.164062 88.921875 124.171875 90.976562 C 124.179688 92.148438 123 92.808594 122.0625 93.222656 C 119.382812 94.402344 116.230469 94.621094 113.34375 94.839844 C 107.527344 95.28125 101.722656 95.820312 95.945312 96.660156 C 89.367188 97.617188 82.960938 98.683594 76.285156 98.363281 C 69.75 98.050781 63.269531 97.113281 56.816406 96.089844 C 50.425781 95.078125 44.046875 93.957031 37.609375 93.292969 C 30.992188 92.613281 24.453125 92.804688 17.828125 93.25 C 11.257812 93.6875 4.707031 93.917969 -1.875 93.996094 C -5.113281 94.035156 -8.378906 93.988281 -11.605469 94.28125 C -12.363281 94.347656 -18.648438 94.960938 -17.003906 96.675781 C -16.25 97.460938 -14.226562 97.441406 -13.214844 97.496094 C -11.785156 97.578125 -10.347656 97.546875 -8.914062 97.550781 C -5.664062 97.550781 -2.414062 97.335938 0.828125 97.132812 C 7.496094 96.722656 14.152344 96.128906 20.824219 95.796875 C 27.382812 95.46875 33.917969 95.507812 40.449219 96.226562 C 46.949219 96.941406 53.398438 98.085938 59.882812 98.9375 C 66.382812 99.789062 72.925781 100.421875 79.488281 100.453125 C 86.050781 100.488281 92.382812 99.550781 98.835938 98.496094 C 102.050781 97.972656 105.285156 97.558594 108.511719 97.121094 C 111.726562 96.6875 114.921875 95.949219 118.140625 95.609375 C 119.574219 95.457031 122.910156 95.144531 123.496094 97.035156 C 124.136719 99.117188 121.171875 100.125 119.71875 100.5 C 113.75 102.035156 107.863281 103.882812 101.890625 105.398438 C 98.890625 106.164062 95.839844 106.699219 92.84375 107.484375 C 91.996094 107.707031 87.300781 108.554688 87.589844 110.132812 C 88.148438 113.167969 100.136719 106.660156 101.910156 109.386719 C 103.480469 111.792969 92.511719 114.417969 91.003906 115.050781 C 89.835938 115.539062 87.308594 116.808594 88.269531 118.480469 C 89.101562 119.929688 91.226562 119.269531 91.34375 121.414062 C 91.480469 123.910156 89.5 126.734375 88.058594 128.628906 C 86.367188 130.855469 84.292969 132.757812 82.136719 134.523438 C 72.390625 142.5 61.714844 149.351562 51.550781 156.78125 C 46.414062 160.539062 41.34375 164.390625 36.449219 168.460938 C 31.65625 172.441406 27.195312 176.804688 22.359375 180.742188 C 20.644531 182.140625 18.882812 183.539062 17.496094 185.285156 C 16.671875 186.328125 14.960938 188.863281 15.976562 190.269531 C 17.28125 192.078125 21.46875 188.144531 22.457031 187.296875 C 26.132812 184.144531 29.425781 180.546875 32.988281 177.261719 C 37.621094 172.996094 42.566406 169.097656 47.605469 165.324219 C 52.671875 161.53125 57.867188 157.898438 62.851562 154 C 65.226562 152.148438 67.304688 149.949219 69.707031 148.121094 C 70.835938 147.261719 76.21875 143.414062 76.195312 147.296875 C 76.183594 149.527344 73.628906 151.648438 72.242188 153.09375 C 70.121094 155.308594 68.214844 157.636719 66.527344 160.203125 C 65.375 161.960938 63.210938 164.601562 63.039062 166.792969 C 62.945312 167.996094 63.582031 168.457031 64.609375 167.929688 C 67.003906 166.699219 68.871094 163.570312 70.378906 161.441406 C 73.023438 157.703125 75.472656 153.867188 78.320312 150.269531 C 82.222656 145.328125 86.363281 140.554688 90.570312 135.875 C 94.75 131.230469 99.078125 126.71875 103.648438 122.460938 C 106 120.273438 108.503906 118.230469 110.773438 115.953125 C 112.109375 114.609375 114.335938 111.40625 116.613281 112.003906 C 119.21875 112.691406 115.835938 116.503906 115.023438 117.359375 C 112.925781 119.582031 110.839844 121.8125 108.816406 124.105469 C 104.601562 128.875 100.566406 133.804688 96.636719 138.816406 C 88.78125 148.835938 81.222656 159.113281 74.355469 169.839844 C 71.117188 174.894531 68.039062 180.046875 65.074219 185.265625 C 63.671875 187.734375 62.414062 190.292969 60.929688 192.714844 C 59.894531 194.398438 57.394531 196.636719 57.816406 198.804688 C 60.140625 198.652344 62.003906 196.074219 63.207031 194.34375 C 64.914062 191.890625 66.476562 189.328125 68.046875 186.789062 C 71.566406 181.074219 74.964844 175.285156 78.453125 169.550781 C 81.945312 163.804688 85.558594 158.136719 89.351562 152.582031 C 93.109375 147.082031 97.03125 141.699219 101.058594 136.394531 C 105.058594 131.121094 109.152344 125.917969 113.484375 120.90625 C 114.722656 119.476562 122.472656 109.253906 124.578125 112.046875 C 125.65625 113.476562 124.222656 115.917969 123.523438 117.148438 C 121.863281 120.054688 120.136719 122.925781 118.371094 125.769531 C 114.828125 131.476562 111.160156 137.113281 107.441406 142.707031 C 103.683594 148.351562 99.855469 153.949219 96.082031 159.582031 C 92.367188 165.125 88.71875 170.714844 85.246094 176.410156 C 81.773438 182.105469 78.492188 187.917969 75.386719 193.824219 C 72.269531 199.742188 69.332031 205.757812 66.550781 211.839844 C 65.335938 214.492188 63.6875 217.359375 63.339844 220.296875 C 63.167969 221.769531 63.648438 223.933594 65.46875 222.492188 C 67.140625 221.167969 67.527344 218.5625 68.144531 216.652344 C 69.117188 213.632812 70.40625 210.71875 71.792969 207.867188 C 74.636719 202.035156 77.820312 196.347656 80.878906 190.621094 C 84.0625 184.652344 87.320312 178.722656 90.742188 172.890625 C 94.105469 167.152344 97.609375 161.5 101.292969 155.964844 C 104.960938 150.449219 108.855469 145.089844 112.578125 139.609375 C 114.433594 136.878906 116.25 134.117188 117.960938 131.292969 C 119.40625 128.910156 120.460938 126.191406 122.085938 123.929688 C 123.15625 122.445312 124.808594 122.171875 125.023438 124.3125 C 125.191406 126.003906 124.605469 127.839844 124.085938 129.429688 C 122.363281 134.699219 119.570312 139.675781 117.050781 144.589844 C 114.015625 150.515625 111.269531 156.566406 108.476562 162.609375 C 105.613281 168.808594 102.710938 174.988281 99.800781 181.164062 C 96.910156 187.304688 94.023438 193.445312 91.015625 199.523438 C 88.171875 205.269531 85.171875 210.960938 82.886719 216.960938 C 82.019531 219.234375 81.136719 221.578125 80.691406 223.980469 C 80.449219 225.273438 79.988281 227.644531 81.117188 228.671875 C 82.765625 230.167969 83.984375 227.179688 84.40625 226.039062 C 85.402344 223.347656 86.355469 220.640625 87.398438 217.960938 C 89.8125 211.742188 92.617188 205.699219 95.34375 199.613281 C 98.144531 193.367188 100.886719 187.097656 103.660156 180.84375 C 106.449219 174.554688 109.242188 168.273438 112.050781 161.996094 C 114.765625 155.917969 117.632812 149.914062 120.402344 143.863281 C 123.152344 137.863281 125.351562 131.730469 127.613281 125.539062 C 128.273438 123.742188 129.035156 120.664062 130.882812 119.621094 C 133.1875 118.316406 133.703125 122.984375 133.796875 124.316406 C 134.015625 127.402344 133.425781 130.511719 132.960938 133.550781 C 132.449219 136.914062 131.863281 140.265625 131.203125 143.605469 C 129.914062 150.109375 128.183594 156.5 126.144531 162.808594 C 124.085938 169.171875 121.753906 175.441406 119.5 181.734375 C 117.222656 188.085938 114.992188 194.457031 113.117188 200.9375 C 111.285156 207.261719 109.875 213.660156 108.507812 220.09375 C 107.886719 223.003906 107.179688 225.964844 107.226562 228.960938 C 107.242188 229.894531 107.171875 231.796875 108.097656 232.398438 C 109.121094 233.058594 110.054688 231.664062 110.402344 230.847656 C 111.472656 228.351562 111.394531 225.082031 111.871094 222.425781 C 112.453125 219.171875 113.152344 215.9375 113.941406 212.726562 C 115.546875 206.199219 117.5625 199.789062 119.539062 193.367188 C 120.527344 190.148438 121.433594 186.949219 122.113281 183.648438 C 122.523438 181.664062 122.804688 179.414062 123.925781 177.667969 C 124.996094 176.003906 126.730469 176.351562 126.765625 178.425781 C 126.804688 180.75 125.816406 183.328125 125.269531 185.550781 C 123.65625 192.109375 122.003906 198.648438 120.597656 205.253906 C 119.191406 211.859375 117.847656 218.488281 117.003906 225.195312 C 116.59375 228.480469 116.1875 231.804688 116.089844 235.113281 C 116.011719 237.707031 115.96875 240.855469 117.046875 243.285156 C 117.410156 244.101562 118.207031 245.308594 119.269531 245.046875 C 120.179688 244.824219 120.597656 243.566406 120.792969 242.777344 C 121.519531 239.824219 121.246094 236.570312 121.257812 233.558594 C 121.285156 226.972656 122.164062 220.386719 123.75 214 C 125.339844 207.597656 127.480469 201.347656 129.085938 194.949219 C 130.714844 188.449219 131.792969 181.816406 132.664062 175.175781 C 133.511719 168.71875 134.695312 162.03125 134.65625 155.507812 C 134.644531 153.605469 134.320312 151.160156 135.511719 149.523438 C 137.054688 147.40625 138.136719 152.808594 138.1875 153.84375 C 138.3125 156.582031 137.863281 159.359375 137.699219 162.089844 C 137.5 165.5 137.519531 168.890625 137.613281 172.304688 C 137.796875 179.132812 137.988281 185.964844 137.828125 192.792969 C 137.667969 199.582031 136.992188 206.304688 136.152344 213.035156 C 135.464844 218.554688 134.59375 224.117188 134.273438 229.671875 C 134.171875 231.425781 134.011719 233.90625 135.246094 235.347656 C 137.039062 237.4375 137.902344 234.261719 138.132812 232.867188 C 138.675781 229.613281 138.539062 226.222656 138.78125 222.933594 C 139.03125 219.539062 139.375 216.152344 139.738281 212.769531 C 140.460938 206.042969 141.304688 199.320312 141.660156 192.558594 C 142.019531 185.726562 141.734375 178.894531 141.277344 172.078125 C 140.824219 165.351562 140.417969 158.628906 140.042969 151.902344 C 139.976562 150.730469 139.675781 148.992188 140.480469 147.988281 C 141.46875 146.757812 142.394531 148.222656 142.648438 149.21875 C 143.414062 152.207031 143.285156 155.507812 143.785156 158.558594 C 144.050781 160.199219 144.40625 161.820312 144.898438 163.410156 C 145.191406 164.355469 145.445312 165.59375 146.175781 166.3125 C 148.421875 168.53125 148.734375 163.972656 148.710938 162.785156 C 148.636719 159.457031 147.789062 156.214844 147.082031 152.984375 C 146.359375 149.6875 145.792969 146.351562 145.238281 143.023438 C 144.679688 139.6875 144.175781 136.34375 143.464844 133.039062 C 143.023438 130.976562 141.796875 127.769531 143.136719 125.808594 C 145.890625 121.78125 151.433594 132.152344 152.199219 133.707031 C 155.117188 139.625 157.507812 145.839844 159.996094 151.945312 C 162.554688 158.226562 165.03125 164.539062 167.628906 170.800781 C 170.179688 176.957031 172.957031 183.003906 175.722656 189.066406 C 178.496094 195.144531 181.109375 201.277344 183.191406 207.632812 C 184.230469 210.800781 185.136719 214.027344 186.304688 217.152344 C 186.554688 217.816406 188.40625 223.164062 189.625 222.800781 C 191.210938 222.332031 188.316406 216.726562 188.019531 215.886719 C 186.878906 212.683594 185.84375 209.445312 184.707031 206.246094 C 182.449219 199.898438 179.785156 193.734375 177.09375 187.566406 C 174.375 181.34375 171.742188 175.09375 169.226562 168.78125 C 167.957031 165.589844 166.679688 162.402344 165.382812 159.226562 C 164.210938 156.355469 162.726562 153.597656 161.761719 150.648438 C 161.210938 148.964844 159.957031 145.148438 161.355469 143.539062 C 163.136719 141.492188 165.835938 145.960938 166.640625 147.09375 C 170.402344 152.371094 173.878906 157.742188 177.984375 162.777344 C 182.09375 167.820312 186.34375 172.746094 190.253906 177.949219 C 194.214844 183.21875 197.953125 188.652344 201.472656 194.222656 C 204.835938 199.546875 207.820312 205 210.5625 210.667969 C 210.964844 211.5 213.277344 215.339844 214.027344 212.785156 C 214.691406 210.535156 212.785156 207.078125 211.820312 205.167969 C 208.890625 199.386719 205.039062 194.101562 201.429688 188.738281 C 197.640625 183.101562 193.789062 177.507812 189.847656 171.976562 C 185.898438 166.433594 181.871094 160.945312 177.863281 155.449219 C 173.851562 149.949219 169.820312 144.464844 165.796875 138.972656 C 161.832031 133.554688 157.902344 128.105469 154.1875 122.511719 C 152.308594 119.683594 150.507812 116.8125 148.695312 113.941406 C 147.566406 112.15625 145.210938 109.21875 146.109375 106.929688 C 147.625 103.074219 154.398438 112.925781 154.949219 113.710938 C 158.726562 119.105469 162.0625 124.808594 165.683594 130.308594 C 169.320312 135.835938 173.097656 141.269531 177.097656 146.542969 C 181 151.683594 185.109375 156.671875 189.484375 161.417969 C 193.9375 166.25 198.699219 170.785156 203.335938 175.441406 C 207.84375 179.964844 212.363281 184.597656 215.929688 189.921875 C 216.917969 191.386719 217.695312 192.921875 218.578125 194.445312 C 219.097656 195.335938 220.195312 197.621094 221.445312 197.664062 C 224.59375 197.773438 219.332031 190.96875 218.773438 190.285156 C 214.894531 185.523438 211.066406 180.796875 206.875 176.296875 C 202.382812 171.476562 197.785156 166.75 193.433594 161.792969 C 189.054688 156.804688 184.949219 151.574219 180.953125 146.269531 C 176.914062 140.910156 172.941406 135.496094 169.007812 130.0625 C 167.164062 127.519531 165.246094 124.976562 163.589844 122.308594 C 162.382812 120.371094 160.847656 117.640625 161.746094 115.285156 C 163.753906 110.019531 172.074219 119.074219 173.957031 120.664062 C 178.9375 124.875 184.09375 128.875 189.039062 133.128906 C 194.117188 137.503906 198.957031 142.152344 203.882812 146.699219 C 208.738281 151.183594 213.652344 155.578125 218.8125 159.710938 C 223.703125 163.632812 228.800781 167.414062 233.273438 171.820312 C 234.6875 173.214844 238.734375 178.488281 241.125 176.8125 C 243.421875 175.203125 237.824219 171.40625 236.757812 170.625 C 232.351562 167.410156 228.207031 163.824219 224.074219 160.269531 C 219.011719 155.914062 213.964844 151.527344 209.027344 147.027344 C 204.046875 142.488281 199.167969 137.832031 194.308594 133.164062 C 189.609375 128.652344 184.90625 124.140625 179.929688 119.933594 C 174.90625 115.6875 169.566406 111.90625 163.992188 108.417969 C 161.402344 106.800781 158.785156 105.261719 156.050781 103.898438 C 154.796875 103.273438 152.019531 101.792969 152.902344 99.925781 C 153.929688 97.753906 159.191406 100.304688 160.59375 100.921875 C 165.464844 103.066406 169.855469 106.40625 174.300781 109.296875 C 180.042969 113.03125 185.773438 116.78125 191.480469 120.570312 C 197.128906 124.320312 202.726562 128.136719 208.273438 132.042969 C 213.753906 135.898438 219.183594 139.832031 224.746094 143.566406 C 230.136719 147.191406 235.660156 150.628906 241.378906 153.71875 C 243.726562 154.988281 246.03125 156.4375 248.496094 157.472656 C 249.601562 157.9375 253.949219 159.550781 254.46875 157.546875 C 254.875 155.972656 251.980469 154.328125 250.984375 153.753906 C 248.191406 152.148438 245.210938 150.847656 242.371094 149.328125 C 236.523438 146.203125 230.976562 142.605469 225.554688 138.796875 C 220.109375 134.96875 214.785156 130.964844 209.359375 127.109375 C 203.863281 123.199219 198.289062 119.402344 192.703125 115.625 C 187.175781 111.886719 181.675781 108.070312 175.777344 104.941406 C 173.453125 103.707031 170.203125 102.859375 168.386719 100.878906 C 167.75 100.179688 167.277344 99.136719 168.382812 98.664062 C 169.515625 98.175781 171.203125 98.984375 172.210938 99.460938 C 175.03125 100.789062 177.714844 102.242188 180.636719 103.363281 C 183.6875 104.53125 186.769531 105.613281 189.804688 106.816406 C 196.101562 109.3125 202.332031 111.960938 208.601562 114.527344 C 214.78125 117.054688 221.003906 119.464844 227.335938 121.589844 C 233.628906 123.699219 240.007812 125.445312 246.421875 127.136719 C 249.035156 127.824219 251.707031 128.476562 254.214844 129.476562 C 255.878906 130.144531 257.523438 130.875 259.265625 131.308594 C 260.308594 131.570312 262.703125 132.136719 263.257812 130.730469 C 263.738281 129.507812 261.878906 128.628906 261.042969 128.210938 C 257.472656 126.425781 253.316406 125.59375 249.476562 124.621094 C 243 122.980469 236.476562 121.480469 230.089844 119.484375 C 223.964844 117.566406 217.964844 115.261719 212.117188 112.617188 C 209.675781 111.511719 206.742188 110.261719 204.921875 108.222656 C 204.144531 107.351562 203.589844 106.03125 204.789062 105.238281 C 205.730469 104.617188 207.191406 104.894531 208.242188 105.007812 C 211.472656 105.34375 214.617188 106.1875 217.792969 106.84375 C 221.074219 107.523438 224.414062 107.902344 227.742188 108.273438 C 234.507812 109.027344 241.300781 109.546875 248.050781 110.457031 C 251.316406 110.898438 254.554688 111.496094 257.75 112.3125 C 260.5 113.019531 263.648438 114.324219 266.535156 113.945312 C 267.128906 113.867188 268.332031 113.65625 268.628906 113.027344 C 269.054688 112.125 267.796875 111.460938 267.105469 111.222656 C 265.84375 110.785156 264.347656 110.816406 263.03125 110.605469 C 261.375 110.34375 259.722656 110.042969 258.070312 109.765625 C 251.339844 108.632812 244.554688 107.847656 237.792969 106.921875 C 231.128906 106.011719 224.582031 104.820312 218.050781 103.210938 C 211.648438 101.636719 205.222656 99.832031 198.632812 99.273438 C 195.378906 98.996094 192.027344 99.113281 188.808594 98.535156 C 187.601562 98.320312 183.527344 97.34375 183.34375 95.65625 C 183.136719 93.75 190.738281 94.796875 192.0625 94.769531 C 198.902344 94.621094 205.71875 94.585938 212.558594 94.675781 C 219.425781 94.765625 226.300781 94.871094 233.171875 94.757812 C 236.613281 94.703125 240.054688 94.539062 243.492188 94.453125 C 245.671875 94.398438 248.183594 94.753906 250.335938 94.300781 C 252.308594 93.882812 252.6875 92.199219 250.699219 91.433594 C 248.453125 90.574219 245.734375 90.480469 243.375 90.207031 C 236.789062 89.441406 230.144531 89.28125 223.519531 89.390625 C 216.703125 89.507812 209.894531 89.75 203.082031 89.496094 C 201.488281 89.433594 199.898438 89.339844 198.304688 89.304688 C 197.457031 89.289062 194.742188 89.515625 194.21875 88.660156 C 192.96875 86.613281 200.03125 86.953125 200.703125 86.980469 C 204.003906 87.128906 207.191406 86.121094 210.511719 86.507812 C 213.804688 86.894531 216.984375 87.777344 220.324219 87.25 C 221.445312 87.074219 225.234375 86.445312 225.34375 84.8125 C 225.519531 82.191406 220.605469 83.214844 219.328125 83.433594 C 212.664062 84.585938 205.882812 83.515625 199.234375 84.992188 C 192.574219 86.472656 186.125 87.40625 179.308594 87.792969 C 176.429688 87.957031 173.582031 88.230469 170.75 88.777344 C 168.644531 89.1875 166.429688 89.652344 164.273438 89.382812 C 163.199219 89.246094 160.59375 88.539062 161.148438 86.964844 C 161.578125 85.761719 163.714844 85.164062 164.765625 84.800781 C 169.335938 83.226562 174.214844 82.394531 178.949219 81.511719 C 185.558594 80.285156 192.179688 79.15625 198.753906 77.738281 C 205.359375 76.3125 211.953125 74.808594 218.492188 73.089844 C 224.964844 71.390625 231.355469 69.421875 237.640625 67.128906 C 243.933594 64.832031 250.117188 62.238281 256.226562 59.496094 C 258.769531 58.355469 261.28125 57.148438 263.804688 55.972656 C 265.113281 55.367188 266.582031 55.101562 267.800781 54.300781 C 268.34375 53.945312 269.117188 53.410156 268.75 52.789062 C 268.464844 52.308594 267.359375 52.132812 266.871094 52.085938 C 266.304688 52.03125 265.742188 52.058594 265.183594 52.148438 M 179.195312 -35.253906 L 179.414062 -35.058594 L 179.214844 -34.839844 Z M 158.816406 9.671875 L 158.945312 9.695312 C 160.121094 9.835938 160.390625 10.746094 160.328125 11.953125 C 160.3125 13.207031 160.046875 15.640625 158.398438 15.359375 C 157.148438 14.625 157.625 12.40625 157.320312 11.207031 C 157.203125 9.949219 157.636719 9.433594 158.816406 9.671875 M 155.316406 -12.910156 L 155.53125 -12.710938 L 155.335938 -12.492188 Z M 133.773438 109.375 L 133.691406 109.320312 C 132.929688 108.488281 133.324219 106.179688 133.421875 104.835938 C 133.644531 103.777344 133.589844 101.949219 134.417969 101.335938 C 135.261719 101.136719 136.3125 109.5 133.773438 109.375 M 151.203125 83.304688 L 151.183594 82.890625 L 151.402344 83.089844 Z M 170.957031 80.996094 C 170.148438 81.308594 169.136719 80.886719 167.917969 80.976562 C 166.847656 80.882812 163.5625 81.648438 163.320312 80.230469 C 163.8125 78.996094 165.667969 79.085938 166.691406 78.421875 C 167.480469 78.027344 168.183594 77.417969 169.105469 77.480469 L 169.28125 77.503906 C 170.570312 77.632812 172.695312 80.152344 170.957031 80.996094 " />
  <path d="M -14.160156 84.371094 C -15.519531 83.730469 -15.296875 83.042969 -13.957031 82.566406 C -9.429688 81.21875 -4.285156 81.9375 0.347656 81.792969 C 11.148438 82.050781 21.757812 85.542969 32.722656 85.308594 C 41.160156 85.039062 49.964844 84.800781 58.246094 85.332031 C 64.429688 85.769531 70.609375 84.507812 76.574219 85.953125 C 79.058594 86.851562 77.820312 87.945312 74.914062 88.472656 C 69.5625 89.222656 63.582031 88.558594 58.117188 88.496094 C 42.832031 88.363281 28.007812 87.957031 12.832031 86.734375 C 8.53125 86.453125 4.046875 86.214844 -0.175781 86.019531 C -4.910156 85.523438 -9.929688 86.078125 -14.066406 84.414062 " />
</svg>
