<svg
  xmlns="http://www.w3.org/2000/svg"
  width="480"
  height="420"
  viewBox="0 0 480 420"
  fill="none"
>
  <title>FAQ question echo</title>
  <g
    stroke="#0B5139"
    stroke-linecap="round"
    stroke-linejoin="round"
  >
    <path
      d="M77 147C93 57 197 10 307 42C409 72 450 163 412 238C383 295 326 315 274 324C230 332 205 350 202 381"
      stroke-width="48"
    />
    <path
      d="M119 157C135 89 216 57 290 76C356 93 385 141 366 189C351 226 312 241 269 250C221 260 184 287 180 334"
      stroke-width="27"
    />
    <path
      d="M157 169C168 123 221 101 272 113C313 123 334 151 323 178C313 201 287 210 254 218C201 232 163 263 157 311"
      stroke-width="15"
    />
  </g>
  <circle cx="199" cy="391" r="22" fill="#EF5D3C" />
  <path
    d="M78 299C59 291 46 274 42 255M96 330C75 331 56 324 42 312M119 355C103 366 84 371 64 369"
    stroke="#0B5139"
    stroke-width="12"
    stroke-linecap="round"
  />
</svg>
