<svg xmlns="http://www.w3.org/2000/svg" viewBox="0 0 168 58" preserveAspectRatio="none" fill="none">
  <rect x="2.5" y="2.5" width="163" height="53" rx="13" stroke="#d95a42" stroke-width="1.7" />
  <rect x="7.5" y="7.5" width="153" height="43" rx="9" stroke="#0d4f42" stroke-width="1.7" />
  <rect x="12.5" y="12.5" width="143" height="33" rx="6" stroke="#d7a94f" stroke-width="0.9" opacity="0.9" />

  <path d="M39 12.5H67M101 12.5H129M39 45.5H67M101 45.5H129" stroke="#d7a94f" stroke-width="1.2" stroke-linecap="round" />
  <path d="M79.5 10.2L84 6.8l4.5 3.4-4.5 3.4-4.5-3.4Z" fill="#d95a42" />
  <path d="M78.5 47.8L84 43.7l5.5 4.1-5.5 4.1-5.5-4.1Z" fill="#d7a94f" />
  <circle cx="73" cy="10.5" r="1.8" fill="#0d4f42" />
  <circle cx="95" cy="10.5" r="1.8" fill="#0d4f42" />
  <circle cx="74" cy="47.5" r="1.8" fill="#0d4f42" />
  <circle cx="94" cy="47.5" r="1.8" fill="#0d4f42" />

  <g id="corner" stroke-linecap="round" stroke-linejoin="round">
    <path d="M20 17C26 16 30 13 33 9" stroke="#0d4f42" stroke-width="1.6" />
    <path d="M20 17C22 22 19 26 14 30" stroke="#0d4f42" stroke-width="1.6" />
    <path d="M24 14c3 2 6 2 9 0" stroke="#15705e" stroke-width="1.25" />
    <path d="M17 22c3-1 5-3 6-6" stroke="#15705e" stroke-width="1.25" />
    <path d="M29 10l3 3-3 3-3-3 3-3Z" fill="#0d4f42" />
    <path d="M13 27l3 3-3 3-3-3 3-3Z" fill="#d7a94f" />
    <circle cx="20" cy="17" r="2.2" fill="#d95a42" />
    <circle cx="32" cy="21" r="1.6" fill="#d95a42" />
    <path d="M26 23c3-2 6-2 8 .4-2.6 2.3-5.4 2.2-8-.4Z" fill="#15705e" />
    <path d="M17 11c2.8.4 4.8 2 5.8 4.8-3 .2-5-1.3-5.8-4.8Z" fill="#15705e" />
    <path d="M12 19c2.7-.8 5-.2 6.8 2.1-2.5 1.5-4.8.8-6.8-2.1Z" fill="#0d4f42" opacity="0.9" />
  </g>

  <use href="#corner" transform="translate(168 0) scale(-1 1)" />
  <use href="#corner" transform="translate(0 58) scale(1 -1)" />
  <use href="#corner" transform="translate(168 58) scale(-1 -1)" />
</svg>
