<svg
  xmlns="http://www.w3.org/2000/svg"
  width="480"
  height="420"
  viewBox="0 0 480 420"
  fill="none"
>
  <title>Lessons corner splat</title>
  <path
    d="M0 420V248C49 257 94 276 132 305C111 258 80 217 36 183L79 130C131 170 169 218 192 271C188 204 199 142 226 87L289 118C263 169 252 222 255 278C284 219 324 169 378 128L420 183C370 222 332 267 308 319C354 286 412 264 480 258V420H0Z"
    fill="#AAA4E6"
  />
  <path
    d="M0 420V322C62 323 116 336 165 362C134 326 96 297 51 278L71 232C135 258 185 297 219 350C238 300 266 259 308 225L341 266C307 295 282 327 268 364C321 334 387 319 480 321V420H0Z"
    fill="#F5ECD9"
  />
  <path
    d="M134 111C159 111 180 91 180 66C180 91 201 111 226 111C201 111 180 132 180 157C180 132 159 111 134 111Z"
    fill="#AAA4E6"
  />
  <circle cx="276" cy="333" r="22" fill="#EF5D3C" />
</svg>
