<svg xmlns="http://www.w3.org/2000/svg" viewBox="0 0 360 150" role="img" aria-labelledby="title desc">
  <title id="title">Porto line drawing</title>
  <desc id="desc">A blue line illustration of Porto buildings and an arched bridge.</desc>
  <g fill="none" stroke="#1d55c8" stroke-linecap="round" stroke-linejoin="round">
    <path d="M15 118c36-6 69-6 100 0 25 5 50 5 75 0 42-8 91-8 155 0" stroke-width="1.6"/>
    <path d="M29 112V78h30v34M35 78V66h17v12M36 88h6M48 88h6M36 101h6M48 101h6" stroke-width="1.7"/>
    <path d="M66 112V63h42v49M75 63V50h24v13M78 77h7M92 77h7M78 92h7M92 92h7M88 112V98" stroke-width="1.7"/>
    <path d="M114 112V72h31v40M121 72V59h17v13M123 84h6M134 84h6M123 98h6M134 98h6" stroke-width="1.7"/>
    <path d="M151 112V55h36v57M158 55V41h22v14M160 68h7M174 68h7M160 84h7M174 84h7M160 100h7M174 100h7" stroke-width="1.7"/>
    <path d="M193 112V71h36v41M201 71V58h20v13M203 84h7M217 84h7M203 99h7M217 99h7" stroke-width="1.7"/>
    <path d="M235 112V62h38v50M244 62V47h20v15M246 76h7M260 76h7M246 92h7M260 92h7M246 106h7M260 106h7" stroke-width="1.7"/>
    <path d="M280 112V53h45v59M288 53V39h27v14M290 67h8M306 67h8M290 83h8M306 83h8M290 99h8M306 99h8" stroke-width="1.7"/>
    <path d="M22 75h15M101 53h17M181 41h14M264 47h18M318 39h13" stroke-width="1.3"/>
    <path d="M127 127c43-41 94-42 153 0" stroke-width="1.8"/>
    <path d="M151 127c34-25 70-25 108 0" stroke-width="1.4"/>
    <path d="M178 127c18-12 36-12 55 0" stroke-width="1.2"/>
    <path d="M134 126h151M178 126v-28M201 126V91M224 126V98M246 126v-17" stroke-width="1.4"/>
    <path d="M136 106h140M144 96h122M157 87h94" stroke-width="1"/>
    <path d="M45 126c19-5 39-5 58 0M284 126c17-4 31-4 48 0" stroke-width="1.1"/>
  </g>
</svg>
