<svg xmlns="http://www.w3.org/2000/svg" viewBox="0 0 32 32" role="img" aria-labelledby="title">
  <title id="title">Blue floral ornament</title>
  <g fill="none" stroke="#1d55c8" stroke-linecap="round" stroke-linejoin="round">
    <path d="M16 3.5c2.9 4.2 2.9 7.4 0 9.7-2.9-2.3-2.9-5.5 0-9.7Z" stroke-width="1.7"/>
    <path d="M16 28.5c-2.9-4.2-2.9-7.4 0-9.7 2.9 2.3 2.9 5.5 0 9.7Z" stroke-width="1.7"/>
    <path d="M3.5 16c4.2-2.9 7.4-2.9 9.7 0-2.3 2.9-5.5 2.9-9.7 0Z" stroke-width="1.7"/>
    <path d="M28.5 16c-4.2 2.9-7.4 2.9-9.7 0 2.3-2.9 5.5-2.9 9.7 0Z" stroke-width="1.7"/>
    <path d="M7.2 7.2c4.6.9 7 3.1 7.1 6.7-3.6-.1-5.8-2.5-7.1-6.7Z" stroke-width="1.3"/>
    <path d="M24.8 7.2c-.9 4.6-3.1 7-6.7 7.1.1-3.6 2.5-5.8 6.7-7.1Z" stroke-width="1.3"/>
    <path d="M24.8 24.8c-4.6-.9-7-3.1-7.1-6.7 3.6.1 5.8 2.5 7.1 6.7Z" stroke-width="1.3"/>
    <path d="M7.2 24.8c.9-4.6 3.1-7 6.7-7.1-.1 3.6-2.5 5.8-6.7 7.1Z" stroke-width="1.3"/>
    <circle cx="16" cy="16" r="2.1" fill="#1d55c8" stroke="none"/>
  </g>
</svg>
