<svg xmlns="http://www.w3.org/2000/svg" width="330" height="330"><path fill="#203E82" d="M283.184 239.559c5.474 4.344 9.43 9.512 10.816 16.441.96 9.344.019 16.486-5.543 24.117-7.633 9.258-16.965 15.118-29.02 16.633-15.115.846-29.587-.234-44.562-2.25-18.158-2.435-35.145-2.93-53.375-1.018-2.643.276-5.287.542-7.932.806a2466 2466 0 0 0-26.998 2.868C78.004 302.53 78.004 302.53 59 298l-2.637-.59c-10.75-2.782-20.307-8.92-26.238-18.41-2.27-6.052-2.603-10.752-.324-16.785 2.574-4.754 6.418-8.068 11.406-10.125 9.768-2.583 18.97.683 28.244 3.738 18.645 5.911 33.298.158 50.174-8.016 18.543-8.626 34.664-5.827 53.763-1.397 11.029 2.471 21.272 3.407 32.362 1.023l2.48-.526c6.963-1.563 13.572-3.823 20.269-6.258 18.11-6.545 37.27-12.881 54.685-1.095"/><path fill="#C8C3EF" d="M229.512 184.848C235.702 189.994 240.38 195.97 242 204c.557 7.235-1.124 12.917-5.562 18.625-9.534 10.233-23.725 13.674-37.26 14.424-11.67.303-23.062-2.763-34.127-6.182-20.457-5.815-38.799 2.146-57.461 9.89-13.733 5.612-28.624 7.372-42.754 2.052-7.901-3.598-13.301-7.95-17.336-15.684-1.222-7.64.076-14.746 4.5-21.125 7.539-9.388 17.648-14.736 29.457-16.332 5.623-.59 11.167-.671 16.812-.58 14.974.213 27.57-3.174 41.51-8.276 29.718-10.86 62.295-16.148 89.733 4.036"/><path fill="#203E82" d="M140.563 117.063c18.438 5.397 33.903 5.231 52.687.874 29.917-6.537 29.917-6.537 41.75.063 3.985 2.577 7.22 5.552 9 10 1.24 7.711-.742 13.58-5 20-6.18 8.062-15.858 12.75-25.77 14.484-8.026.701-15.599.21-23.605-.547-18.742-1.655-33.605 2.238-51.39 8.02-19.912 6.421-38.649 11.435-58.462 1.98-7.281-4.048-13.925-10.827-16.37-18.914-1.712-8.606.19-15.894 5.035-23.187 18.478-23.009 47.024-20.196 72.125-12.774"/><path fill="#AAA4E6" d="M159.855 56.672C163.831 59.134 167.39 62.039 171 65q2.343 1.752 4.688 3.5c10.261 8.087 10.261 8.087 11.375 15 .303 7.186-3.138 12.439-7.844 17.574-7.982 6.928-18.001 10.262-28.406 9.864C139.92 109.84 129.774 105.856 122 98c-4.374-5.545-7.377-11.311-6.812-18.5.954-6.552 3.936-12.001 8.812-16.5 10.892-7.932 22.94-12.937 35.855-6.328"/><path fill="#EF5D3C" d="M264.313 167.813c3.837 3.123 4.519 4.675 5.062 9.562-.542 5.24-2.609 8.111-6.562 11.5-4.92 1.968-9.647 1.895-14.625.125-3.143-2.873-4.872-5.96-6.188-10-.083-4.157.855-5.785 3.188-9.25 5.88-5.75 12.016-5.827 19.125-1.937"/></svg>