<svg xmlns="http://www.w3.org/2000/svg" width="330" height="330"><path fill="#EF5D3C" d="M176 95c4.816 2.455 7.251 4.857 9 10-.37 6.03-2.581 10.63-6.187 15.375-2.169 3.207-2.798 4.397-3.063 8.375 2.471 6.425 7.265 8.302 13.188 11.063 5.688 2.73 9.582 5.905 13.062 11.187 1.893 5.68 1.921 11.741-.562 17.25-2.933 5.119-6.986 8.551-12.25 11.125-9.088 1.782-15.319.546-23.188-4.375a205 205 0 0 1-3.562-2.75c-3.991-2.891-7.513-3.904-12.438-3.25-3.6 1.391-7.063 2.996-10.566 4.613-5.454 2.203-10.078 2.559-15.649.614-3.222-1.5-5.74-3.189-8.472-5.477-2.692-2.037-4.018-2.127-7.313-1.75l-2-4 1.508-1.152c2.083-2.58 1.63-4.152 1.367-7.41-.235-8.838 3.564-14.834 9.125-21.438 1.289-2.024 2.53-4.07 3.754-6.133 2.12-3.177 3.577-4.644 7.246-5.867a85 85 0 0 1 5-.125l2.625-.008C139 121 139 121 142 122c3.846.356 6.172.503 9.516-1.527 3.165-3.15 4.313-6.226 5.859-10.348C160.867 101.46 165.516 93.992 176 95"/><path fill="#203E82" d="M165 189c2.688 2.25 2.688 2.25 5 5l1.492 1.668c2.418 2.724 4.56 5.41 6.57 8.457 5.083 7.541 12.793 12.905 20.375 17.75 11.366 7.51 19.588 16.374 23.094 29.754 1.653 8.361-.054 15.62-4.719 22.684-5.317 5.08-11.343 7.783-18.812 7.687-9.993-.796-19.523-5.41-27-12-1.695-2.008-1.695-2.008-3.125-4.125l-1.445-2.07c-3.846-7.544-4.863-14.995-4.993-23.368-.18-9.135-.503-17.37-5.812-25.125l-1.875-2.792L152 210c-3.915-5.744-5.518-9.896-5-17 .848-3.487 1.962-3.976 5.063-5.937 4.74-1.812 8.594-.329 12.937 1.937"/><path fill="#C8C3EF" d="M208.293 192.11c4.085.98 6.733 2.668 10.02 5.14 7.897 5.621 16.409 9.777 25.147 13.93 16.68 8.039 36.643 20.623 43.54 38.82 1.57 5.287 2.192 11.102.059 16.29-2.646 4.427-5.821 8.711-10.946 10.292-6.647 1.315-13.204.87-19.113-2.582-9.034-6.814-12.904-16.553-16.375-27-5.442-15.738-16.622-27.37-30.041-36.715-4.255-3.018-7.114-5.65-9.584-10.285.063-3.25.063-3.25 1-6 3-2 3-2 6.293-1.89"/><path fill="#AAA4E6" d="M70.152 58.52c9.39 7.574 15.232 18.468 21.036 28.855 3.679 6.568 7.949 12.207 12.769 17.96 6.16 7.552 6.16 7.552 6.043 12.665-1.049 3.846-1.605 4.737-5 7-5.11.106-7.785-1.395-11.95-4.293-6.006-3.906-12.053-5.988-18.862-8.082-14.671-4.814-28.705-10.9-36.555-25.098-3.131-6.985-3.86-13.403-1.446-20.714C38.637 61.043 42.288 56.783 48 54c8.447-3.204 15.266-.342 22.152 4.52"/><path fill="#C8C3EF" d="M130.313 12.063C136.733 16.691 140.573 22.159 142 30c.622 7.247-.113 14.265-1.062 21.438-1.564 12.347-.375 22.693 3.978 34.347 1.558 4.219 2.57 7.64 2.084 12.215-1.562 2.938-1.562 2.938-4 5-4.03.147-6.145-.276-9.242-2.898-3.99-4.206-7.164-9.093-10.446-13.852l-2.141-3.103C97.074 47.924 97.074 47.924 99.375 31.289c1.81-8.259 5.927-13.995 12.875-18.789 5.624-2.856 12.22-2.312 18.063-.437M123 188c2.892 2.15 3.776 3.889 4.484 7.402.544 7.627-1.694 13.574-4.817 20.37-3.738 8.156-4.952 15.861-4.976 24.794l-.076 5.409q-.044 4.2-.071 8.399a1156 1156 0 0 1-.103 8.192v2.507c-.132 7.805-2.234 14.919-7.441 20.927-4.6 3.222-9.04 5.468-14.75 5.063-5.38-1.016-8.873-3.575-12.562-7.563-3.544-5.25-3.342-11.365-2.688-17.5 2.122-8.166 6.093-15.312 10.613-22.36 6.574-10.352 9.44-20.396 11.414-32.411 1.458-8.158 3.507-15.924 9.66-21.792 4.258-2.646 6.335-2.639 11.313-1.437"/><path fill="#AAA4E6" d="M243.375 47.188C248.856 50.972 251.94 54.603 254 61c.919 8.007-1.313 14.38-6.105 20.836-6.443 7.477-13.54 12.15-22.06 16.945-6.97 4.06-12.322 8.187-17.614 14.27-2.606 2.868-4.137 3.928-7.951 4.86C197 118 197 118 195.062 117c-2.053-3.866-1.358-8.008-.144-12.078l1.27-3.172c2.182-5.771 3.87-11.518 5.375-17.5 3.588-13.966 8.204-26.42 20.48-35.129 6.757-3.87 13.958-4.528 21.332-1.934M89 173v2l4 1c1.338 4.416.956 7.886-1 12-1.871 2.826-3.862 5.522-5.914 8.219-1.87 2.492-3.552 5.022-5.211 7.656-2.55 3.884-5.195 6.306-8.875 9.125l-2.437 2.563C63.788 221.055 57.826 223.173 50 224c-5.136-.28-5.136-.28-7.5-2.25L41 220a233 233 0 0 0-3.187-2.562L35 215v-2h-3c-2.048-4.096-1.246-8.203.063-12.437 5.927-12.07 17.777-17.935 29.953-22.156 8.96-2.97 17.466-5.747 26.984-5.407m2 7 1 3Z"/><path fill="#203E82" d="M275.156 113.434c3.729 3.167 5.31 6.962 6.844 11.566.422 5.489-.29 9.19-3 14-3.983 4.488-7.981 7.112-14 8-6.24-.018-12.052-.923-18.062-2.562-8.086-2.164-15.763-1.841-23.965-.461-2.532.03-3.858-.608-5.973-1.977-2-3-2-3-2.062-5.812 2.297-6.892 10.363-10.956 16.25-14.75l2.239-1.447c12.205-7.716 28.114-15.215 41.73-6.557"/><path fill="#AAA4E6" d="M247 169c10.162 2.272 24.28 7.895 31 16v2l1.75.563c3.305 2.111 4.911 4.842 6.25 8.437.584 3.136.696 5.877 0 9-2.182 2.756-3.872 4.436-7 6-4.64.04-8.75.052-12.375-3L265 206a220 220 0 0 0-4-1 230 230 0 0 1-6.125-2.812c-4.002-1.885-7.98-3.648-12.125-5.188-7.398-2.916-14.09-6.679-17.75-14-1.205-3.856-1.21-5.453.25-9.25 4.532-7.121 14.219-5.675 21.75-4.75m21 33 2 2 1-2z"/><path fill="#C8C3EF" d="M62.59 128.684c9.948 5.203 9.948 5.203 13.41 9.316.831 3.324 1.426 5.77.29 9.055-3.292 4.966-10.587 6.985-16.165 8.257-9.607 1.569-19.44 1.871-27.941-3.449-3.31-2.528-5.22-4.818-6.184-8.863-.668-5.897.603-10.221 4-15 10.549-8.396 21.311-4.606 32.59.684"/><path fill="#AAA4E6" d="M175 44c3.39 2.137 4.726 3.177 6 7 1.113 9.558-1.472 15.943-6.875 23.688C172 76 172 76 168.438 76.062 165 75 165 75 163.125 72.689c-2.803-6.696-3.685-15.07-1.336-22.024 3.285-5.942 6.604-7.348 13.211-6.664M137 220c3.375.125 3.375.125 7 1 3.333 3.667 3.99 8.169 4 13-.78 3.433-1.854 4.842-4.25 7.438C141 243 141 243 137.875 242.5c-3.06-1.597-4.106-2.598-5.875-5.5-.876-4.783-.801-9.434 1.938-13.562C136 221 136 221 137 220M107 162l4 1 1 4-5-1z"/></svg>