<svg xmlns="http://www.w3.org/2000/svg" width="330" height="330"><path fill="#C8C3EF" d="M163 123c4.295 2.545 7.354 6.369 10.563 10.125 6.345 7.354 13.844 10.375 23.476 11.105l3.149.145c10.973.668 22.83 3.718 30.812 11.625l1.852 1.773c7.598 7.923 10.32 16.647 11.699 27.34.943 6.059 3.692 10.121 8.449 13.887 3.594 1.551 7.29 2.755 11 4 6.27 2.286 10.294 4.324 14 10 .813 2.875.813 2.875 1 5h-1l.176 1.758c.258 4.468.156 6.698-2.238 10.617-5.044 4.507-9.287 5.588-15.813 6.5-7.69 1.2-13.426 3.787-18.625 9.688-3.998 5.506-6.46 11.785-9.168 17.988-5.9 13.445-14.39 27.19-28.332 33.449-4.227 1.585-9.057 1.683-13.312.188-2.281-1.606-3.49-3.346-4.13-6.07-.426-7.908 2.656-14.204 5.813-21.263 3.287-7.502 4.144-16.558 1.875-24.492-.96-2.217-2.032-4.275-3.246-6.363l-1.625-3.187C182.622 228.815 172.073 225.43 162 224a231 231 0 0 0-7.68-.14q-2.254-.029-4.507-.06c-2.328-.028-4.654-.05-6.982-.05-12.818-.02-26.814-.808-36.831-9.75l1-2-3 1c-4.905-6.247-7.833-11.943-8-20 1.22-10.046 6.3-17.349 14.027-23.633 3.75-2.599 7.85-4.443 11.973-6.367q2.691-1.335 5.375-2.687C132 158 132 158 134.165 157.105c2.323-1.4 2.814-2.62 3.835-5.105l1-1.973c2.027-4.236 3.29-8.06 4-12.714.955-6.046 3.187-10.337 8-14.313 4.225-1.408 7.71-1.148 12 0"/><path fill="#203E82" d="M151.875 50.25c5.02 6.495 8.11 11.348 8.125 19.75l.035 2.219c-.29 6.604-3.091 11.575-7.035 16.781a173 173 0 0 1-6 5c-7.047 7.905-10.117 14.95-11.437 25.313-1.546 10.514-3.167 18.978-11.727 26.074-4.533 2.578-9.188 3.191-14.285 3.847-6.152 1.327-9.811 4.711-13.739 9.453-2.768 3.337-4.295 4.953-8.722 5.586-9.238.436-15.633-3.764-22.403-9.71-9.15-8.678-15.578-17.834-16-30.875.273-11.115 4.619-21.1 12.606-28.938l2.457-2.25c5.482-5.18 8.852-11.202 12.407-17.812 2.5-4.607 4.8-8.304 8.843-11.688h2l.762-1.79c4.656-8.313 16.487-13.277 25.207-15.774 13.17-3.303 27.627-4.013 38.906 4.814M230.152 66.547c4.948 3.89 7.541 9.528 9.786 15.266 1.565 3.635 3.117 5.595 6.812 7.37 2.86 1.038 5.763 1.856 8.688 2.692C264.23 94.469 270.543 98.88 275 107c2.95 6.881 3.646 16.348 1.125 23.473-4.016 6.856-10.01 11.932-17.672 14.12-9.896 1.64-17.776-1.853-26.113-6.718-12.676-7.388-24.189-11.095-38.831-12.662-7.132-.845-13.494-2.606-18.384-8.15-3.524-5.08-4.866-8.814-4.125-15.063 2.761-6.222 7.11-10.688 12.926-14.145 6.169-3.732 10.62-8.407 15.293-13.83 7.964-9.046 19.658-13.844 30.933-7.478"/><path fill="#EF5D3C" d="M71.188 177.563c4.078 2.307 6.536 4.882 7.812 9.437.386 3.736.572 7.455.742 11.207.768 11.297 4.658 19.01 13.133 26.418 7.876 5.827 17.86 8.614 27.25 11 4.4 1.123 7.33 2.539 10.875 5.375l1.813 1.25c2.014 2.969 2.303 6.25 2.187 9.75-1.584 3.75-3.479 5.992-7 8-2.973.438-5.936.466-8.937.5-10.103.114-10.103.114-14.063 3.5-1.879 2.813-1.879 2.813-3.562 6-2.52 4.75-4.36 8.05-9.665 9.688-6.909.9-12.142-.475-17.773-4.688-1.281-2.176-1.281-2.176-2-4h-2c-4.628-9.284-8.115-17.267-7.969-27.785l.037-2.652q.055-2.63.18-5.257c.21-7.3-1.52-12.314-6.467-17.74-.753-.66-1.505-1.322-2.281-2.004-5.461-5.245-8.56-10.398-9-18.062.405-7.27 3.19-12.652 8.563-17.5 5.588-4.634 11.41-5.369 18.124-2.437"/><path fill="#C8C3EF" d="M276 166c3.37 1.96 5.47 3.357 6.695 7.156.593 3.783.596 6.174-.945 9.719-4.513 5.48-4.513 5.48-9.125 6-5.022.408-7.419-1.007-11.203-4.21-2.598-3.042-2.524-6.792-2.422-10.665 2.891-7.654 9.507-10.518 17-8"/></svg>