<svg xmlns="http://www.w3.org/2000/svg" width="330" height="330"><path fill="#203E82" d="M120.313 38.25C128.128 44.168 133.483 50.058 135 60c.459 6.044-1.747 11.025-4.062 16.5-3.16 7.5-4.396 12.525-1.563 20.25 3.774 5.761 11.027 7.813 17.313 9.75 7.037 2.226 11.77 5.941 15.312 12.5 2.337 5.788 2.46 10.99 1 17-4.75 10.527-14.098 17.237-24.634 21.251l-1.991.749c-7.442 2.841-12.936 5.56-16.52 12.93-2.455 5.731-2.36 11.23-2.355 17.382-.287 13.457-1.735 23.644-11.5 33.688-7.649 7.118-15.686 9.66-26.078 9.344-8.8-1.035-15.74-6.257-21.274-12.989C54.238 212.09 54.472 205.418 55 198c1.975-6.583 6.209-11.539 10.465-16.816 3.087-4 4.339-6.98 4.535-12.184-.437-2.437-.437-2.437-1-4-3.688-.893-7.241-1.128-11.028-1.238-10.207-.341-17.135-1.448-24.41-9.137-4.898-5.999-6.091-11.067-5.945-18.738.803-6.055 3.533-11.037 7.82-15.324L38 119l2.625-1.75c8.43-3.122 15.635-1.298 23.602 2.316a69 69 0 0 1 6.835 4.059c6.493 4.256 14.273 6.302 21.985 5.012 3.39-1.106 5.004-2.713 6.953-5.637.103-4.94-1.683-7.495-5-11-2.79-1.83-5.725-3.344-8.687-4.875-12.263-6.6-22.754-13.435-27.75-27.062C55.539 69.695 56.768 60.933 61 51c5.503-9.126 13.6-16.219 23.77-19.586 12.599-2.339 24.83-.204 35.543 6.836"/><path fill="#C8C3EF" d="M237 48c13.964 11.06 21.557 26.598 24 44 1.816 20.964-1.69 39.959-14.5 57a160 160 0 0 1-3.5 4l-1.723 2c-12.893 14.016-31.032 20.146-48.69 25.693-5.817 1.877-10.705 3.619-15.587 7.307l-3 1c-1 1.687-1 1.687-2 4l-1.5 2.813c-1.5 3.187-1.5 3.187-2.375 6.75-1.527 4.664-4.04 6.978-8 9.75-4.76 1.54-8.817 1.071-13.312-.938-3.914-2.204-6.001-4.147-7.813-8.375-1.27-8.365.092-15.114 5-22 4.681-5.448 9.986-10.058 15.563-14.562 14.457-11.689 23.41-23.847 25.71-42.676.406-7.787-2.38-15.783-7.273-21.762-4.341-4.62-8.784-6.96-14.7-9.133-4.045-1.525-7.517-3.527-10.3-6.867-2.256-6.768-1.038-12.197 1.742-18.555 5.997-11.658 16.282-21.136 28.574-25.668C202.206 35.782 219.958 37.086 237 48"/><path fill="#203E82" d="M269 184c7.478 8.42 7.768 18.218 7.195 28.954C275.431 220.962 271.9 227.64 266 233a443 443 0 0 1-5.125 4c-6.43 5.051-8.478 8.967-10.25 16.875-1.782 7.614-4.93 13.575-11.437 18.125-6.639 3.667-13.932 3.546-21.188 2-3.062-1.625-3.062-1.625-6-4l-1.645-1.328c-4.029-3.602-6.361-7.39-8.855-12.172-3.637-6.948-8.545-11.995-14.309-17.262-5.077-4.722-7.73-8.614-8.629-15.675.644-5.239 2.181-9.452 6.107-13.124 4.939-3.733 9.812-6.127 15.581-8.314 8.051-3.217 14.746-6.974 21.75-12.125 12.942-9.323 32.845-18.774 47-6"/><path fill="#EF5D3C" d="M153.043 225.602c5.6 4.002 9.224 8.727 10.957 15.398.97 10.854-.16 19.26-7 28-4.891 4.88-9.154 7.957-16.187 8.438-6.416-.172-11.86-2.882-16.672-7.047-4.713-5.086-6.853-10.413-7.516-17.266.404-8.595 3.435-15.918 9.375-22.125 8.159-7.199 16.843-11.072 27.043-5.398"/></svg>