<svg xmlns="http://www.w3.org/2000/svg" width="330" height="330"><path fill="#203E82" d="M260.117 67.535C265.845 71.991 270.192 76.893 272 84c1.138 11.168-.476 19.69-7.375 28.563l-1.816 2.207c-9.948 12.268-9.948 12.268-9.684 19.793.973 3.821 1.67 5.185 4.875 7.437 3.557 1.01 5.314 1.318 8.71-.258l2.665-1.867 2.89-1.957L275 136c6.667-4.64 12.818-7.467 21.125-6.937 5.34 1.292 8.832 3.279 12.2 7.66 3.184 5.44 3.813 11.113 2.675 17.277-2.47 5.915-5.81 9.503-11.579 12.217-4.751 1.537-9.657 1.342-14.608 1.345q-3.18.014-6.356.067l-2.813.002c-3.202.447-5.05 1.463-7.644 3.369-2.834 4.723-3.509 8.306-2.625 13.746 2.693 9.712 11.449 16.573 18.813 22.879 8.522 7.37 14.629 15.965 16.07 27.426.476 8.94-2.962 17.286-8.555 24.164-6.29 6.592-12.37 9.79-21.515 10.16-7.741-.163-13.279-2.35-19-7.562-4.227-4.588-6.212-9.788-8.106-15.657-2.024-6.148-3.47-9.72-9.082-13.156-3.524-1.446-4.874-1.04-8.562.125-4.399 2.4-6.297 4.844-8.731 9.176-3.794 6.703-8.095 13.162-15.707 15.699-7.633.683-12.614-.178-18.625-5.187-3.72-4.405-6.04-8.509-6.875-14.25.983-7.002 3.546-12.683 9.172-17.098 4.144-2.607 8.576-4.627 13.023-6.656 6.1-3.339 10.246-8.145 12.305-14.809.468-3.455.828-6.895 1.137-10.367.502-4.994 1.612-9.184 3.488-13.883 3.047-7.866 4.301-16.136.875-24.125-4.25-7.077-10.623-11.537-18.5-13.625l-6.062-1.375c-6.625-1.614-10.95-3.675-14.875-9.5-1.26-3.704-1.55-6.236-1.063-10.125 2.833-5.557 6.595-8.656 12.375-10.937 4.008-.096 7.222.92 10.625 2.937 2.59 2.472 4.78 5.197 7 8 4.253 4.861 4.253 4.861 7.688 5.5C215 122 215 122 217 119c.175-3.619.262-6.77-.492-10.309C214.742 99.333 214.97 89.27 220 81c8.692-12.297 25.398-22.118 40.117-13.465"/><path fill="#C8C3EF" d="M125 56c5.62 5.089 7.488 10.581 8.027 17.93-.1 11.288-4.948 20.266-11.799 28.87-5.717 7.184-9.753 12.852-9.04 22.325.403 2.92.984 5.423 1.874 8.25 2.077 8.03 1.857 16.233-2.062 23.625a132 132 0 0 1-3.914 6.238c-3.251 5.274-2.614 11.807-2.086 17.762 2.713 5.728 7.204 9.5 13 12 2.071.271 2.071.271 4.266.309l2.449.076q2.512.052 5.023.094c6.384.207 12.158.992 17.285 5.17 4.452 5.686 6.737 9.875 5.977 17.351-1.827 5.273-4.225 8.94-9 12-5.556 1.852-10.121 1.701-15.312-.875-2.327-1.274-4.475-2.65-6.688-4.125-3-.375-3-.375-6 0-3.213 2.66-3.46 5.81-3.917 9.82-.131 3.45.671 6.667 1.48 9.993 1.772 8.31 1.564 15.37-2.313 23.125-3.096 4.214-6.313 6.416-11.25 8.062-6.45.776-11.728-.075-17-4-4.414-4.626-6.676-9.756-7.312-16.125.28-3.475.907-6.34 1.812-9.687 1.401-5.312 2.56-10.71 1.5-16.188-1.328-1.77-1.328-1.77-3-3-6.99-.28-10.87 3.677-16 8-5.737 4.614-12.154 6.363-19.5 5.813-8.158-1.544-13.835-6.084-18.5-12.813-3.584-6.457-4.216-13.466-2.309-20.578 5.139-14.017 16.22-21.672 28.141-29.86 3.749-2.701 6.672-5.073 8.168-9.562.363-3.916.488-6.202-1.59-9.598-2.988-2.978-5.202-3.52-9.285-4.464-7.481-1.754-12.887-4.549-17.145-11.024-2.492-4.867-2.378-9.333-.98-14.539 1.78-4.764 4.75-7.67 9-10.375 5.878-1.96 10.4-1.57 15.938 1 3.754 2.004 6.663 4.332 9.75 7.25 2.875 2.683 4.219 3.72 8.062 4.938 3.766-.218 5.424-.685 8.25-3.188 3.626-6.922 1.238-14.146-.562-21.312-2.615-11.065-2.59-22.198 3.039-32.352 6.262-9.465 14.561-16.716 25.62-19.95 6.766-1.375 12.128.082 17.903 3.614"/><path fill="#EF5D3C" d="M145.168 127.129c4.175 2.712 7.956 5.803 11.77 8.996 6.153 4.993 12.508 7.184 20.062 9.25 8.435 2.467 16.31 7.017 21 14.625 4.369 8.506 5.642 17.544 3.27 26.871-1.846 5.069-4 8.693-8.27 12.129l-2.25 1.813c-5.26 2.27-9.923 1.84-15.25-.063-4.525-2.908-7.428-7.65-10.484-11.973-2.958-4.075-5.092-6.415-10.016-7.777-3.971-.258-8.032-.507-11.91.492-5.668 1.377-13.582 1.962-18.778-1.054-3.013-3.177-3.811-5.074-4.312-9.438 1.036-5.205 3.19-9.53 6-14 .969-3.022 1.074-5.65.957-8.809l-.064-2.763a461 461 0 0 0-.196-5.719c-.133-7.004-.133-7.004 2.205-10.783 5.058-4.644 10.13-4.992 16.266-1.797"/></svg>