<svg xmlns="http://www.w3.org/2000/svg" width="330" height="330"><path fill="#AAA4E6" d="M126.586 51.578C135.33 58.028 139.616 65.387 142 76c1.888 17.03-3.412 33.062-13.754 46.375-1.782 2.083-3.407 3.773-5.559 5.438-4.07 3.312-6.326 6.557-7.035 11.718-.172 5.1.186 7.418 3.348 11.469v3c3.217.57 6.407 1.044 9.656 1.395l3.844.417 3.844.395c4.737 1.027 8.211 2.726 11.035 6.766.715 2.333.79 4.036.559 6.464l-.16 2.247c-1.176 3.503-2.874 5.057-5.778 7.316-2.786.605-5.134.964-7.937 1.125-5.317.367-9.358 1.231-14.063 3.875l-3 1-.437 3.125C116 192 116 192 115.187 194.813c-.247 4.208 1.164 7.035 2.903 10.82C119 208 119 208 119 212l-1 2 2.246-.191c4.841.336 7.557 3.786 10.754 7.191 6.843 9.617 8.397 21.395 6.531 32.887-1.748 7.462-4.812 14.687-11.406 18.988L124 274v3c-9.408 8.711-20.638 10.529-32.887 10.14L88 287v-2l-2.422-.629C73.025 280.85 61.048 274.61 52 265c-.8-2.773-.8-2.773-1-5l-1.773-.16c-3.267-1.232-4.102-3.314-5.852-6.277-3.242-5.43-3.242-5.43-5.375-7.563-3.62-3.62-4.133-8.492-4.312-13.437C33.8 227.83 34.946 224.259 37 220l3-1 .813-2.75c1.534-4.2 3.535-5.744 7.187-8.25 2.875-.812 2.875-.812 5-1v-2a496 496 0 0 1 5.313-2.562l2.988-1.442C64 200 64 200 67 201c2.188-.937 2.188-.937 4-2l-1-2 2.438-1.875C75 193 75 193 76 191c.291-3.35.365-5.358-1.312-8.312-2.24-2.24-4.053-2.654-7.176-2.82-4.977.013-9.604.26-14.512 1.132-2.673.083-5.324.046-8 0v-2l-3.687.25c-3.233-.006-4.241-.207-7.126-1.937-5.127-5.421-6.424-9.976-6.355-17.34.22-2.58 1.016-4.668 2.168-6.973h2l.813-1.875C34 149 34 149 37 147l2-2c6.166-1.67 11.168-.48 17 2l2.563 2.188c3.196 2.376 5.444 2.314 9.343 2.152 2.675-.434 4.227-1.392 6.094-3.34-.35-6.632-1.9-9.9-6-15a620 620 0 0 1-3.691-5.52C63 126 63 126 61.016 125.133c-2.847-1.6-3.43-3.479-4.703-6.445l-1.262-2.864c-4.57-12.28-1.946-24.6 3-36.312C59.643 76.148 61.294 73.53 64 71l1 1 1.031-1.504c3.364-4.715 6.918-8.418 11.43-12.05L79 57v-2c13.522-10.486 32.864-12.406 47.586-3.422M58 83l-1 4 2-4zm-4 12v7h1v-7zm-24 61 1 3Zm-1 3v6h1v-6zm34 18v1h5v-1zm15 10 1 4Zm21 30 1 3h2l-1-3zm-58 28v3l2-1zm79 11-2 2 3 1 2-1-1-2zM265 87c5.122 4.905 8.275 9.39 8.438 16.625-.19 8.663-3.518 14.59-9.25 20.938-4.606 4.396-9.796 7.103-15.366 10.06-5.855 3.191-10.033 6.824-13.822 12.377l-1.29 1.852c-4.852 8.205-5.373 18.354-3.71 27.523 2.147 8.31 5.43 13.21 12.625 17.875 4.65 2.594 9.417 4.183 14.484 5.762 10.498 3.589 18.282 9.825 23.668 19.492 5.195 10.604 4.24 22.461.493 33.414-4.472 10.854-11.698 19.615-22.211 25.094-8.55 3.54-18.817 4.238-27.563 1.086-13.815-6.265-18.968-17.699-24.559-30.973-4.676-10.615-11.456-15.403-22-19.562-5.774-2.322-10.796-5.026-14.093-10.473-1.482-3.67-1.377-7.207-.844-11.09 1.956-4.224 4.17-6.878 8.613-8.555 4.56-.85 9.216-.458 13.836-.367 4.444-.098 6.85-.669 10.551-3.078 2.446-2.872 2.48-6.324 2.383-10.035-.67-3.44-2.678-4.921-5.383-6.965-3.58-1.697-6.558-2.255-10.5-2.437-4.241-.326-7.142-.747-10.5-3.563-2.25-3.374-2.25-4.564-2.273-8.516l-.063-3.293q-.039-3.417-.055-6.836c-.177-8.367-1.268-12.935-7.234-19.042-3.322-2.59-7.061-3.821-10.973-5.286-5.14-2.198-9.26-5.79-11.402-11.027-.565-4.302-.477-7.844 1.188-11.875 3.067-3.597 5.477-4.952 10.187-5.562 5.139.62 8.699 2.225 12.07 6.097 2.688 3.919 3.913 7.523 4.93 12.153 1.203 4.909 1.203 4.909 4.938 7.374 5.558 1.225 8.766 1.581 13.75-1.312 5.579-3.804 8.704-8.465 12.187-14.125 3.664-5.855 7.917-10.83 12.75-15.75l1.742-1.781C231.948 82.71 251.725 77.299 265 87m-90 38-2 3 4 2-1-5z"/><path fill="#203E82" d="M154.375 216.75c12.76 4.4 21.122 26.973 27.313 38.352 1.933 4.269 2.061 8.272 2.312 12.898l.313 3.625c-.584 6.297-3.202 10.68-7.938 14.813C170.669 291.01 165.14 290.47 158 290c-5.975-1.92-9.257-5.929-12.312-11.312-1.574-6.15-.818-11.49.812-17.563 2.178-8.672 3.367-20.523.5-29.125-.5-4.839-.603-8.77 1.563-13.187C151 217 151 217 154.375 216.75"/><path fill="#EF5D3C" d="M278.875 150.625c5.31 5.935 8.032 11.52 7.602 19.598-.971 5.658-3.063 10.495-7.274 14.476-5.247 3.663-10.872 5.038-17.2 3.961-7.222-2.223-13.75-7.546-18.128-13.597-1.63-5.705-1.747-10.762.688-16.25 3.178-5.647 8.148-10.04 14.437-11.813l2.625-.812c6.12-.34 11.937 1.434 17.25 4.437"/><path fill="#C8C3EF" d="M197.5 58c3.361 4.482 3.03 9.649 2.5 15-2.157 8.599-8.737 16.158-16 21-3.884.33-6.79.324-10-2-5.001-7.04-4.517-14.636-4-23 1.147-5.543 4.798-10.312 9-14 6.697-3.285 12.855-1.516 18.5 3"/></svg>