<svg xmlns="http://www.w3.org/2000/svg" width="330" height="330"><path fill="#AAA4E6" d="M186.625 158c4.066 2.41 7.617 5.23 11.238 8.258 3.33 2.715 5.672 3.086 9.992 3.023 3.558-.466 6.244-2.313 9.145-4.281q2.12-1.35 4.25-2.687l1.953-1.262c4.915-2.874 10.29-2.572 15.797-2.051 6.68 1.817 11.213 6.373 15 12 4.593 8.565 8.67 17.092 6.574 27.016-2.204 7.086-7.036 10.688-13.387 14.109C244 214 244 214 242.563 215.75c-1.246 4.987-1.354 8.73 1 13.25a169 169 0 0 0 7.852 8.973c4.01 5.125 4.131 10.422 4.031 16.726-.787 5.837-3.662 9.905-8.074 13.703-5.78 4.072-11.539 4.254-18.371 3.598-6.744-1.94-12.488-6.68-16.001-12.722-1.413-2.623-2.786-5.258-4.071-7.947-2.674-5.445-6.166-9.206-11.928-11.331-2.262-.012-2.262-.012-4.687.313l-2.657.324q-2.531.345-5.062.695c-7.204.925-13.286.694-19.594-3.332-6.208-5.844-9.112-11.63-9.5-20.125.11-6.336 1.993-11.104 4.441-16.875 2.118-6 .54-10.77-1.504-16.562-2.062-5.88-2.426-10.784.188-16.625 5.984-10.8 16.654-12.943 28-9.813M120.89 51.152c2.55 2.036 4.3 4.133 6.11 6.848v3h-2a125 125 0 0 0 3 4h1l.078 2.266c.458 7.949.458 7.949 2.547 11.484 3.464 1.823 5.634 1.169 9.375.25l2.5-1.062c3.482-1.306 5.8-1.448 9.5-.938 3.27 2.115 6.242 4.484 8 8 .506 5.074.594 9.568-1.375 14.313-3.097 3.17-6.38 5.073-10.207 7.261-3.108 1.833-5.31 3.475-7.418 6.426-.769 3.49-1.02 4.727 0 8 1.877 2.798 3.913 5.285 6.152 7.8 3.109 3.7 3.19 7.217 3.13 11.852-.587 4.897-3.155 8.088-6.407 11.723-4.221 2.386-8.045 3.045-12.875 2.625-5.528-2.038-9.22-5.982-12.773-10.547-2.025-2.399-3.314-2.461-6.477-2.766-4.502.376-6.289 1.454-9.75 4.313l-2.437 3c-3.599 4.212-6.723 6.584-12.176 7.383-7.393.307-12.711-1.038-18.211-6.043-4.072-4.622-4.992-8.624-4.637-14.723.865-4.913 2.936-8.222 6.648-11.617 2.602-2.87 2.744-5.194 2.813-9-2.215-3.042-4.874-3.82-8.375-4.937-6.462-2.265-10.557-4.742-13.828-11.016-2.235-5.74-2.52-11.113-.234-16.86 2.6-5.074 5.863-7.657 10.75-10.562 5.3-1.232 10.474-.344 15.374 1.938C82.178 75.077 84.25 75.597 88 75c3.152-3.175 3.429-5.96 3.813-10.312.725-5.173 1.506-8.69 5.296-12.38 7.187-4.973 16.19-5.783 23.782-1.156M53 86l1 2Zm-1 2 1 4Zm15 47 1 4Z"/><path fill="#203E82" d="M135.254 166.234c5.192 3.71 8.424 7.424 9.746 13.766 1.367 11.836-2.2 21.761-7.637 32.117-2.708 5.727-3.347 11.92-1.34 17.965.867 1.872 1.78 3.723 2.75 5.543 3.01 5.826 2.98 11.805 1.165 18-2.816 4.904-5.788 8.47-11.372 10.074-5.723.81-9.611.274-14.566-2.699-2.127-2.305-3.744-4.581-5.375-7.25-1.625-1.75-1.625-1.75-4.5-2.687-4.547-.091-6.58 1.766-10.11 4.44l-2.14 1.622-2.008 1.57C85.893 261.472 81.666 261.443 77 261c-6.456-1.338-11.047-4.765-15-10-2.867-5.772-3.306-12.886-1.348-19.055 2.267-4.223 5.637-7.733 8.86-11.246 2.202-2.514 2.48-3.586 2.738-7.012-.443-6.534-4.363-10.089-8.629-14.722-3.785-4.587-4.054-8.38-3.937-14.207.597-5.208 2.863-8.305 6.566-12.008 5.367-3.416 10.231-5.556 16.742-4.395 4.936 1.585 8.98 4.87 13.07 7.958 3.692 2.12 5.745 2.373 9.938 1.687 2.438-2.062 2.438-2.062 5-5 7.262-6.92 14.272-12.232 24.254-6.766"/><path fill="#EF5D3C" d="M238.188 50.563c5.046 2.826 8.976 6.93 10.812 12.437.205 4.174.308 7.113-1.062 11.063-1.162 3.639-.679 6.233.062 9.937l2.563.41c7.842 1.488 13.32 3.28 18.437 9.59 3.653 6.05 4.004 12.35 2.531 19.172-2.047 6.288-5.88 10.871-11.156 14.766-7.243 2.28-14.32 1.627-21.375-.938-5.314-.659-9.636-.32-14 3-1.64 2.716-3.064 5.502-4.496 8.332-2.466 4.375-5.434 6.46-9.754 8.98-5.349 1.338-10.708 1.277-16-.25-3.729-1.056-6.83-1.269-10.687-1.437-5.767-.362-10.466-.943-15.063-4.625-4.197-5.273-5.447-9.295-5-16 1.46-4.554 3.495-7.703 6.375-11.5 3.895-5.346 5.58-10.702 7.387-16.984 2.567-7.29 6.607-11.665 13.426-15.141 3.747-1.532 7.587-2.155 11.578-2.75 2.709-.758 3.603-1.33 5.234-3.625 1.128-3.451 1.967-6.933 2.84-10.457 2.153-6.575 5.757-10.52 11.16-14.543 5.475-1.825 10.877-1.827 16.188.563"/></svg>