<svg xmlns="http://www.w3.org/2000/svg" width="330" height="330"><path fill="#203E82" d="M114.375 81.125c6.783 7.429 8.426 14.335 8.035 24.34-.73 6.294-3.078 10.425-6.422 15.722l-1.082 1.72a291 291 0 0 1-3.199 4.882c-2.442 4.594-3.044 8.424-2.082 13.523C111 144 111 144 112.985 145.114c4.182 1.23 8.306 1.445 12.64 1.762 16.566 1.475 26.543 7.093 37.426 19.723 5.104 6.29 7.496 12.143 6.949 20.402-1.943 3.956-3.351 5.567-7 8-7.288.84-11.476-2.268-17.187-6.187-4.624-2.98-8.313-3.192-13.813-2.813-4.757 1.586-6.919 3.61-9.187 8.11-3.92 9.121-3.39 16.838.187 25.89 3.057 6.31 7.25 11.637 11.625 17.063 5.881 7.345 10.244 13.721 9.832 23.507-.961 5.11-3.793 8.867-7.52 12.368-4.224 2.316-8.151 2.386-12.937 2.062-6.849-2.08-11.705-6.134-15.375-12.316q-1.228-2.33-2.453-4.66c-1.66-2.865-3.27-4.434-6.172-6.024-4.124-.6-6.26-.407-9.922 1.61-3.503 2.72-5.501 5.466-7.89 9.14C76.598 270.915 70.232 279.03 60 281c-8.577 1.116-15.469-1.22-22.75-5.687-8.584-8.823-11.762-18.144-11.672-30.292.383-10.74 4.89-19.81 11.98-27.771C39 216 39 216 41 216l.66-1.691c2.357-4.062 6.186-6.737 9.711-9.774C55.9 200.168 57.774 196.332 58 190c-.875-2.75-.875-2.75-3-5-2.117-.95-4.229-1.61-6.457-2.258-7.993-2.333-15.501-4.863-19.855-12.367-2.783-6.073-2.487-11.853-.5-18.125C31.532 146.252 35.396 141.408 42 139c7.151-1.582 13.465-1.437 20 2a156 156 0 0 1 8.715 6.258C74.62 150.236 77.118 150.09 82 150c1.585-3.17 1.34-5.48 1-9-1.742-3.773-4.273-7.026-6.75-10.344-5.51-7.504-10.188-15.66-9.621-25.281C68.426 93.877 73.689 85.4 83.125 78.5c11-5.74 21.074-3.782 31.25 2.625"/><path fill="#AAA4E6" d="M273.688 106.125c8.325 6.945 12.16 15.309 13.593 25.965.588 11.983-5.515 22.062-12.531 31.222-3.958 5.181-5.332 9.049-4.75 15.688 2.607 7.211 8.75 11.838 14.22 16.928 9.695 9.325 15.677 20.78 16.155 34.385-.61 17.152-7.4 32.964-19.7 44.953-10.614 9.329-25.452 17.517-39.863 18.046-9.105-.746-16.487-3.31-22.609-10.39-7.387-10.46-8.934-21.85-6.781-34.376.678-3.319 1.403-6.617 2.242-9.899 1.299-5.284 1.42-9.287.336-14.647-2.06-2.976-3.29-3.814-6.785-4.73-3.715-.312-5.59.331-8.965 1.855l-3.16 1.402a251 251 0 0 0-8.278 4.16c-9.22 4.699-18.393 5.59-28.304 2.438-4.6-2.064-9.218-5.545-11.508-10.125-.702-7.132-.702-7.132 2.375-10.937 4.97-3.906 9.443-3.308 15.633-3.489 9.816-1.008 15.256-7.565 21.68-14.449 7.271-7.522 13.125-13.11 23.312-16.125q3.252-1.026 6.5-2.062l2.957-.938c3.578-1.407 5.262-2.932 7.543-6 2.269-6.806.96-12.547-1-19.25-2.688-9.346-3.989-18.783.68-27.695 5.093-7.926 12.11-14.812 21.382-17.43 9.877-1.568 17.43-.427 25.625 5.5"/><path fill="#EF5D3C" d="M193.168 119.422c4.746 3.77 7.916 7.486 8.832 13.578.23 7.175-1.167 12.953-5 19l-1.625 2.688c-4.1 3.991-8.998 6.884-14.746 7.613-6.11-.307-10.33-3.1-14.629-7.301-4.245-5.103-5.374-9.803-5.27-16.312.747-7.447 4.606-13.006 9.997-18.016 7.16-5.265 14.98-6.144 22.441-1.25"/></svg>