<svg xmlns="http://www.w3.org/2000/svg" width="330" height="330"><path fill="#AAA4E6" d="M113.285 60.547c2.283 1.77 4.502 3.598 6.715 5.453a317 317 0 0 0 4.25 3.313l1.828 1.425c5.65 3.71 11.51 3.847 18.065 4.297C152.37 75.771 158.57 78.64 164 85c4.13 6.048 4.719 11.803 4 19-1.725 6.93-4.854 12.852-8.73 18.809-2.578 4.45-2.778 9.13-2.27 14.191 1.515 4.724 3.83 8.225 6.625 12.313 3.839 5.937 5.272 10.909 3.957 17.914-1.892 6.123-5.462 8.918-10.894 12.148-5.96 1.386-10.997.391-16.188-2.812-3.477-2.502-6.153-5.318-8.937-8.563-7.556-8.626-16.206-11.692-26.812-15.257-17.808-6.072-35.383-15.35-44.564-32.618-5.557-12.11-6.733-22.186-2.507-34.848 4.87-12.09 13.066-20.882 24.914-26.312 10.254-4.112 21.23-4.822 30.691 1.582"/><path fill="#203E82" d="M115.11 167.672c4.904 3.445 7.435 7.005 8.597 12.937.312 2.563.573 5.133.773 7.707 1.11 7.87 5.044 12.983 9.936 18.877 4.203 5.22 6.057 9.918 5.826 16.674-1.25 11.014-8.393 18.316-15.664 26.113-4.382 5.608-5.138 10.927-5.89 17.77-1.111 8.497-2.636 15.747-9.305 21.691-5.223 3.73-10.206 4.075-16.383 3.559-10.412-2.52-17.813-10.906-25.547-17.902-2.388-2.043-4.842-3.931-7.358-5.811C50.882 262.396 41.213 253.937 39 242c-.828-9.253.128-16.826 5.777-24.375 7.17-7.904 16.51-11.662 26.16-15.687 5.269-2.31 9.76-5.33 12.376-10.563.42-2.06.796-4.13 1.097-6.21 1.095-7.454 2.344-12.09 7.965-17.415 7.5-5 15.078-4.358 22.734-.078"/><path fill="#C8C3EF" d="M267 124c8.317 8.147 11.029 19.877 13.837 30.78 1.937 7.125 4.845 13.677 8.04 20.32 4.924 10.32 6.857 20.01 2.994 31.158-3.749 8.151-8.576 14.293-17.058 17.68-18.271 5.054-36.58-3.72-52.313-12.302-31.662-18.057-31.662-18.057-36.098-32.667-1.146-5.609-1.051-10.38 2.223-15.371 4.97-5.776 11.313-7.177 18.477-8.801 7.335-2.017 12.65-6.594 16.898-12.797a240 240 0 0 0 2.938-5.437c4.58-8.683 9.949-15.13 19.437-18.375 7.902-.565 14.244.987 20.625 5.812"/><path fill="#AAA4E6" d="M183.125 194.125c4.792 3.312 8.818 7.338 12.48 11.855 7.45 9.148 16.89 13.313 27.458 17.958 13.15 5.808 23.57 12.492 29.312 26.25 2.93 8.89 2.892 17.913-1.043 26.464-3.657 6.446-8.234 12.106-14.332 16.348-1.66.364-3.327.7-5 1l-2.312 1.938c-5.523 4.238-12.91 4.935-19.688 4.062-10.132-2.515-17.07-7.376-22.652-16.187-3.674-7.667-4.984-16.486-6.41-24.813-1.575-9.056-4.437-15.721-12.06-21.273l-3.315-2.102c-6.821-4.534-11.762-8.954-14.063-17-1.15-6.963.171-13.196 4.188-19 7.031-8.51 17.722-11.246 27.437-5.5M251 254l1 2Zm1 2v8h1v-8z"/><path fill="#EF5D3C" d="M239.594 61.613C244.74 65.483 249.915 69.745 252 76c.54 6.37-.308 10.715-4 16-5.433 6.275-13.058 9.18-20.684 11.988-7.51 2.778-13.085 5.874-16.629 13.325-1.234 3.094-2.044 6.11-2.687 9.374-1.422 7.05-5.408 11.149-11 15.313-4.663 1.554-8.488 1.544-13.125-.125-4.286-2.795-7.224-5.923-8.875-10.875-.618-6.182.766-10.796 4-16 1.905-2.076 3.919-3.979 5.973-5.906 6.715-6.935 9.79-15.645 11.882-24.864 2.2-9.688 4.434-18.974 12.77-25.293 9.687-5.56 20.812-3.02 29.969 2.676"/><path fill="#AAA4E6" d="M158 257c6.136 3.26 8.893 8.616 11 15 2.516 8.324 3.201 16.564.191 24.852-2.461 4.439-6.674 7.89-11.191 10.148-6.207.527-11.781.762-17-3-5.079-4.957-8.249-9.714-8.437-17 .237-10.353 4.487-18.837 11.472-26.293 4.177-3.63 8.47-4.847 13.965-3.707M48.586 139.844C57.644 144.073 67.032 150.513 71 160c1.204 4.015 1.284 7.148-.062 11.188-2.89 4.195-6.004 7.167-10.938 8.812-8.926 1.186-16.76-1.49-24.176-6.457C30.027 168.839 26.405 163.411 25 156c-.1-5.688 1.29-9.57 5-14 5.025-4.568 12.43-4.165 18.586-2.156"/></svg>