<svg xmlns="http://www.w3.org/2000/svg" width="330" height="330"><path fill="#203E82" d="M282 184c3.063 2 3.063 2 5 5 .607 6.353-.49 10.104-3.75 15.5l-1.21 2.067c-6.757 11.264-14.872 21.564-23.884 31.101C256 240 256 240 254.031 242.488c-24.258 29.997-63.114 51.798-101.281 56.2-23.491 1.845-45.447-4.367-67.795-10.863-7.59-2.134-15.335-3.536-23.103-4.862C50.823 280.943 42.082 276.88 35 268c-5.214-8.327-6.47-17.188-4.387-26.844 2.312-7.088 6.67-16.738 13.575-20.277L46 220l1-3c12.15-9.173 26.11-14.278 41.453-12.629 8.415 1.466 16.196 4.172 24.204 7.067 14.64 5.246 29.003 6.771 44.468 6.437 5.728-.05 9.112 1.029 13.688 4.5 1.653 2.262 2.054 3.824 2.187 6.625-1.813 4.13-4.22 6.588-8 9-9.754 3.784-19.785 4.167-30.11 4.605-4.371.204-8.581.558-12.89 1.395l1 4c25.98 8.757 50.67 4.294 74.843-7.207 8.697-4.347 16.455-9.895 24.157-15.793l2.79-2.121A268 268 0 0 0 232 217l1.547-1.294c6.109-5.122 12.096-10.328 17.867-15.83C269.957 182.215 269.957 182.215 282 184"/><path fill="#C8C3EF" d="M130.371 68.254c11.52 7.13 17.4 17.132 20.448 30.08l.619 2.666c2.304 9.851 4.882 17.907 13.52 23.846 4.342 2.453 9.221 3.485 14.015 4.738 7.026 2.002 11.794 5.174 15.964 11.228 1.604 4.812 2.06 9.316.372 14.18-2.25 4.387-4.916 6.893-9.309 9.008-12.772 2.914-22.921-2.67-33.613-9.16-6.83-4.296-12.832-8.985-18.637-14.59-9.236-8.837-18.395-12.791-30.67-16.072C94.19 121.745 88.462 117.384 83 110c-3.68-6.503-5.104-13.807-3.54-21.168 2.782-9.503 9.162-17.203 17.75-22.09 10.693-4.948 22.86-3.936 33.161 1.512M71.055 133.402c5.224 4.157 8.435 9.209 12.011 14.786 4.979 7.24 11.135 10.672 19.653 12.346 3.357.477 6.472.532 9.86.458l3.769-.05q3.88-.067 7.757-.157c12.44-.141 23.214 2.276 32.707 10.715 5.47 6.25 7.577 9.35 7.458 17.676-.391 4.095-1.452 6.818-4.27 9.824-7.676 6.04-15.317 6.888-24.91 6.26-9.616-1.199-18.479-6.37-26.84-10.947-13.892-7.591-26.19-8.056-41.812-6.625-10.79.749-20.041-1.33-28.989-7.547-6.516-5.695-10.266-12.887-11.363-21.446-.253-7.917 1.866-14.584 6.914-20.695 10.917-11.551 24.73-13.692 38.055-4.598"/><path fill="#EF5D3C" d="M257.313 78.188c7.74 8.101 9.084 16.116 8.902 26.984-.57 10.167-5.073 20.493-12.215 27.828-9.26 7.424-17.115 10.029-29 9-8.474-1.938-15.58-7.33-21-14-5.628-9.26-7.766-18.897-5.422-29.652C201.677 89.432 208.67 81.42 217 77c14.057-6.21 26.956-7.633 40.313 1.188"/><path fill="#C8C3EF" d="M248 161c3.752 3.07 5.676 5.913 7.063 10.563-.075 4.1-.773 6.04-3.063 9.437-4.565 4.367-8.117 6.79-14.437 7.25C234 188 234 188 231.25 187c-7.312-2.25-14.255-1.71-21.062 1.73-4.524 2.625-8.924 5.437-12.993 8.73-4.414 3.52-8.471 5.054-14.195 4.54-3.062-1.437-3.062-1.437-5-4-.82-4.101-.855-6.303 1.016-10.016 4.2-5.615 9.744-8.047 15.932-10.91 5.438-2.577 9.42-5.743 13.743-9.957 10.26-9.41 26.581-13.364 39.309-6.117"/><path fill="#203E82" d="M227 194c2.81 2.278 3.849 3.547 5 7-3.928 11.049-16.523 16.286-26.367 21.176-4.744 2.01-9.561 2.719-14.633 1.824-2.625-1.687-2.625-1.687-4-4-.086-3.346.777-4.726 2.875-7.312 3.511-3.237 7.468-5.937 11.355-8.696 2.366-1.702 4.627-3.477 6.895-5.304 5.514-4.136 12.05-7.069 18.875-4.688"/></svg>